<?xml version="1.0" encoding="UTF-8" standalone="no"?><svg xmlns="http://www.w3.org/2000/svg" xmlns:xlink="http://www.w3.org/1999/xlink" fill="#f46b02" height="39.9" preserveAspectRatio="xMidYMid meet" version="1" viewBox="7.9 12.0 48.2 39.9" width="48.2" zoomAndPan="magnify"><g id="change1_1"><path d="M52.9,45.7c0.5-0.6,0.8-1.4,0.8-2.3c0-2-1.6-3.6-3.6-3.6s-3.6,1.6-3.6,3.6c0,0.9,0.3,1.6,0.8,2.3c-0.9,0.5-1.6,1.1-2.2,1.9 c-0.5-0.8-1.3-1.5-2.2-1.9c0.5-0.6,0.8-1.4,0.8-2.3c0-2-1.6-3.6-3.6-3.6s-3.6,1.6-3.6,3.6c0,0.9,0.3,1.6,0.8,2.3 c-0.9,0.5-1.6,1.1-2.2,1.9c-0.5-0.8-1.3-1.5-2.2-1.9c0.5-0.6,0.8-1.4,0.8-2.3c0-2-1.6-3.6-3.6-3.6c-2,0-3.6,1.6-3.6,3.6 c0,0.9,0.3,1.6,0.8,2.3c-1.9,1-3.2,3-3.2,5.2c0,0.6,0.4,1,1,1h9.8h9.8h9.8c0.6,0,1-0.4,1-1C56.1,48.7,54.8,46.7,52.9,45.7z M30.6,41.9c0.9,0,1.6,0.7,1.6,1.6c0,0.9-0.7,1.6-1.6,1.6c-0.9,0-1.6-0.7-1.6-1.6C29,42.6,29.7,41.9,30.6,41.9z M26.8,49.9 c0.4-1.7,2-2.9,3.8-2.9c1.8,0,3.3,1.2,3.8,2.9H26.8z M40.4,41.9c0.9,0,1.6,0.7,1.6,1.6c0,0.9-0.7,1.6-1.6,1.6s-1.6-0.7-1.6-1.6 C38.8,42.6,39.5,41.9,40.4,41.9z M36.6,49.9c0.4-1.7,2-2.9,3.8-2.9c1.8,0,3.3,1.2,3.8,2.9H36.6z M50.2,41.9c0.9,0,1.6,0.7,1.6,1.6 c0,0.9-0.7,1.6-1.6,1.6c-0.9,0-1.6-0.7-1.6-1.6C48.6,42.6,49.3,41.9,50.2,41.9z M46.4,49.9c0.4-1.7,2-2.9,3.8-2.9 c1.8,0,3.3,1.2,3.8,2.9H46.4z" fill="inherit"/><path d="M25.2,44.7c0-0.1,0-0.1,0-0.2v-11h29.6c0.6,0,1-0.4,1-1V14.3c0-0.6-0.4-1-1-1h-30c-0.6,0-1,0.4-1,1v9 c-0.6-0.8-1.4-1.5-2.3-2c1.2-1,1.9-2.4,1.9-4c0-2.9-2.4-5.3-5.3-5.3c-2.9,0-5.3,2.4-5.3,5.3c0,1.7,0.8,3.1,2,4.1 c-1.5,0.8-2.7,2.2-3.3,3.9c-0.9,0.7-3.6,3.1-3.6,6.4v5.4c0,0.1,0,0.2,0.1,0.3c0.1,0.2,0.6,1.6,1.9,2c0.2,0.1,0.6,0.2,0.9,0.2 c0.1,0,0.2,0,0.3,0v4.9c0,0.1,0,0.1,0,0.2c0,0.1,0,0.1,0,0.2c0,1.7,1.4,3.1,3.1,3.1c1.7,0,3-1.3,3.1-2.9c0,0,0,0,0,0l0.8-4.2L19,45 c0,0,0,0,0,0c0.1,1.6,1.4,2.9,3.1,2.9c1.7,0,3.1-1.4,3.1-3.1C25.2,44.8,25.2,44.7,25.2,44.7z M11.2,37.5c-0.2,0.1-0.4,0.1-0.5,0 c-0.3-0.1-0.6-0.5-0.7-0.7v-5.2c0-1.2,0.6-2.3,1.2-3.1V37.5z M25.8,15.3h28v16.1H25.2v-0.6l5.6-6.2c0.2-0.2,0.2-0.4,0.3-0.6 c0.1-1.4-0.3-2.4-1-3.1c-1.2-1-2.8-0.7-2.9-0.7c-0.2,0-0.4,0.2-0.6,0.3l-0.7,0.9V15.3z M18.2,14.1c1.8,0,3.3,1.5,3.3,3.3 s-1.5,3.3-3.3,3.3s-3.3-1.5-3.3-3.3S16.4,14.1,18.2,14.1z M23.5,29.8c0,0,0,0.1-0.1,0.1c0,0.1-0.1,0.1-0.1,0.2c0,0.1,0,0.1,0,0.2 c0,0,0,0.1,0,0.1v14c0,0.1,0,0.1,0,0.2c0,0.1,0,0.1,0,0.2c0,0.6-0.5,1.1-1.1,1.1S21,45.5,21,44.8c0,0,0-0.1,0-0.1c0,0,0-0.1,0-0.1 l-1.8-9.3c-0.1-0.5-0.5-0.8-1-0.8c-0.5,0-0.9,0.3-1,0.8l-1.8,9.3c0,0,0,0.1,0,0.1c0,0,0,0.1,0,0.1c0,0.6-0.5,1.1-1.1,1.1 s-1.1-0.5-1.1-1.1c0-0.1,0-0.1,0-0.2c0-0.1,0-0.1,0-0.2V27.6c0-0.6,0.1-1.1,0.3-1.7c0.7-2,2.6-3.4,4.7-3.4c2.1,0,3.9,1.2,4.6,3.1 c0,0,0,0,0,0c0,0.1,0.1,0.1,0.1,0.2c0,0.1,0.1,0.1,0.1,0.2c0,0,0,0,0,0c0,0,0.1,0,0.1,0.1c0.1,0,0.1,0.1,0.2,0.1c0.1,0,0.1,0,0.2,0 c0.1,0,0.1,0,0.2,0c0.1,0,0.1,0,0.2,0c0,0,0.1,0,0.1,0c0,0,0,0,0,0c0.1,0,0.1-0.1,0.2-0.1c0.1,0,0.1-0.1,0.2-0.1c0,0,0,0,0,0 l3.3-3.8c0.3,0,0.7,0,0.9,0.3c0.3,0.2,0.4,0.7,0.4,1.1L23.5,29.8z" fill="inherit"/><path d="M37.1,19.8h9.7c0.6,0,1-0.4,1-1c0-0.6-0.4-1-1-1h-9.7c-0.6,0-1,0.4-1,1C36.1,19.4,36.6,19.8,37.1,19.8z" fill="inherit"/><path d="M37.1,24.3h9.7c0.6,0,1-0.4,1-1c0-0.6-0.4-1-1-1h-9.7c-0.6,0-1,0.4-1,1C36.1,23.9,36.6,24.3,37.1,24.3z" fill="inherit"/><path d="M37.1,28.8h9.7c0.6,0,1-0.4,1-1c0-0.6-0.4-1-1-1h-9.7c-0.6,0-1,0.4-1,1C36.1,28.4,36.6,28.8,37.1,28.8z" fill="inherit"/></g></svg>