<?xml version="1.0" encoding="UTF-8" standalone="no"?><svg xmlns="http://www.w3.org/2000/svg" xmlns:xlink="http://www.w3.org/1999/xlink" fill="#000000" height="489.8" preserveAspectRatio="xMidYMid meet" version="1" viewBox="-0.5 0.0 601.0 489.8" width="601" zoomAndPan="magnify"><defs><clipPath id="a"><path d="M 356 353 L 493 353 L 493 489.800781 L 356 489.800781 Z M 356 353"/></clipPath></defs><g><g id="change1_1"><path d="M 230.828125 347.308594 C 229.101562 347.308594 227.402344 346.507812 226.316406 345 C 224.515625 342.503906 225.085938 339.027344 227.578125 337.238281 C 232.261719 333.867188 237.4375 331.257812 242.949219 329.492188 L 270.859375 320.5625 C 276.796875 318.667969 282.976562 317.703125 289.207031 317.703125 L 310.78125 317.703125 C 317.019531 317.703125 323.203125 318.667969 329.140625 320.5625 L 357.050781 329.492188 C 362.335938 331.1875 367.308594 333.65625 371.839844 336.816406 C 374.347656 338.582031 374.964844 342.042969 373.207031 344.5625 C 371.4375 347.082031 367.972656 347.6875 365.460938 345.929688 C 361.847656 343.402344 357.878906 341.441406 353.65625 340.089844 L 325.753906 331.160156 C 320.910156 329.605469 315.871094 328.820312 310.78125 328.820312 L 289.207031 328.820312 C 284.128906 328.820312 279.089844 329.605469 274.246094 331.160156 L 246.335938 340.089844 C 241.9375 341.5 237.8125 343.574219 234.078125 346.265625 C 233.089844 346.96875 231.953125 347.308594 230.828125 347.308594" fill="#ef6d07"/></g><g id="change1_2"><path d="M 300 230.09375 C 279.875 230.09375 265.277344 247.097656 265.277344 270.527344 C 265.277344 295.660156 281.503906 317.703125 300 317.703125 C 318.496094 317.703125 334.726562 295.660156 334.726562 270.527344 C 334.726562 247.097656 320.125 230.09375 300 230.09375 Z M 300 328.820312 C 275.152344 328.820312 254.152344 302.125 254.152344 270.527344 C 254.152344 241.136719 273.863281 218.96875 300 218.96875 C 326.136719 218.96875 345.847656 241.136719 345.847656 270.527344 C 345.847656 302.125 324.847656 328.820312 300 328.820312" fill="#ef6d07"/></g><g id="change1_3"><path d="M 107.902344 341.136719 C 104.890625 341.136719 102.410156 338.726562 102.34375 335.691406 C 101.84375 311.507812 117.574219 289.472656 140.617188 282.097656 L 169.386719 272.902344 C 172.316406 272.011719 175.421875 273.679688 176.3125 276.621094 C 177.195312 279.5625 175.535156 282.664062 172.59375 283.546875 L 171.890625 283.769531 L 144.003906 292.6875 C 125.621094 298.566406 113.0625 316.15625 113.46875 335.464844 C 113.53125 338.535156 111.09375 341.070312 108.023438 341.136719 C 107.984375 341.136719 107.941406 341.136719 107.902344 341.136719" fill="#ef6d07"/></g><g id="change1_4"><path d="M 173.613281 270.449219 C 172.179688 270.449219 170.746094 269.898438 169.652344 268.796875 C 158.488281 257.503906 151.820312 240.429688 151.820312 223.125 C 151.820312 193.734375 171.53125 171.566406 197.667969 171.566406 C 210.078125 171.566406 221.585938 176.671875 230.050781 185.933594 C 232.125 188.191406 231.960938 191.71875 229.703125 193.78125 C 227.433594 195.855469 223.917969 195.703125 221.84375 193.433594 C 215.507812 186.507812 206.921875 182.691406 197.667969 182.691406 C 177.542969 182.691406 162.945312 199.695312 162.945312 223.125 C 162.945312 237.5625 168.414062 251.71875 177.566406 260.976562 C 179.722656 263.164062 179.707031 266.679688 177.519531 268.84375 C 176.433594 269.914062 175.023438 270.449219 173.613281 270.449219" fill="#ef6d07"/></g><g id="change1_5"><path d="M 491.335938 341.136719 C 491.296875 341.136719 491.253906 341.136719 491.214844 341.136719 C 488.144531 341.070312 485.707031 338.535156 485.769531 335.464844 C 486.175781 316.15625 473.628906 298.566406 455.234375 292.6875 L 426.644531 283.546875 C 423.703125 282.664062 422.042969 279.5625 422.925781 276.621094 C 423.808594 273.679688 426.902344 272.011719 429.851562 272.902344 L 430.695312 273.160156 L 458.621094 282.097656 C 481.664062 289.472656 497.402344 311.507812 496.894531 335.691406 C 496.828125 338.726562 494.351562 341.136719 491.335938 341.136719" fill="#ef6d07"/></g><g id="change1_6"><path d="M 425.625 270.449219 C 424.214844 270.449219 422.804688 269.914062 421.71875 268.84375 C 419.53125 266.679688 419.515625 263.164062 421.671875 260.976562 C 430.832031 251.71875 436.300781 237.5625 436.300781 223.125 C 436.300781 199.695312 421.695312 182.691406 401.570312 182.691406 C 392.316406 182.691406 383.730469 186.507812 377.394531 193.433594 C 375.320312 195.703125 371.804688 195.855469 369.535156 193.78125 C 367.273438 191.71875 367.113281 188.191406 369.1875 185.933594 C 377.652344 176.671875 389.15625 171.566406 401.570312 171.566406 C 427.707031 171.566406 447.417969 193.734375 447.417969 223.125 C 447.417969 240.429688 440.75 257.503906 429.585938 268.796875 C 428.492188 269.898438 427.058594 270.449219 425.625 270.449219" fill="#ef6d07"/></g><g id="change1_7"><path d="M 5.570312 293.730469 C 2.546875 293.730469 0.078125 291.324219 0.0117188 288.296875 C -0.5 264.105469 15.242188 242.066406 38.277344 234.695312 L 66.1875 225.769531 C 72.125 223.863281 78.296875 222.898438 84.546875 222.898438 L 106.121094 222.898438 C 112.355469 222.898438 118.539062 223.863281 124.480469 225.769531 L 136.03125 229.460938 C 138.957031 230.402344 140.566406 233.527344 139.628906 236.453125 C 138.695312 239.378906 135.5625 241 132.636719 240.050781 L 121.082031 236.355469 C 116.238281 234.808594 111.207031 234.023438 106.121094 234.023438 L 84.546875 234.023438 C 79.457031 234.023438 74.417969 234.808594 69.574219 236.355469 L 41.671875 245.285156 C 23.28125 251.175781 10.722656 268.761719 11.128906 288.0625 C 11.191406 291.132812 8.753906 293.667969 5.691406 293.730469 C 5.652344 293.730469 5.613281 293.730469 5.570312 293.730469" fill="#ef6d07"/></g><g id="change1_8"><path d="M 95.328125 135.289062 C 75.210938 135.289062 60.605469 152.292969 60.605469 175.730469 C 60.605469 200.855469 76.832031 222.898438 95.328125 222.898438 C 113.832031 222.898438 130.058594 200.855469 130.058594 175.730469 C 130.058594 152.292969 115.453125 135.289062 95.328125 135.289062 Z M 95.328125 234.023438 C 70.480469 234.023438 49.488281 207.328125 49.488281 175.730469 C 49.488281 146.332031 69.191406 124.164062 95.328125 124.164062 C 121.464844 124.164062 141.175781 146.332031 141.175781 175.730469 C 141.175781 207.328125 120.183594 234.023438 95.328125 234.023438" fill="#ef6d07"/></g><g id="change1_9"><path d="M 236.402344 172.273438 C 234.410156 172.273438 232.488281 171.203125 231.492188 169.332031 C 230.042969 166.625 231.0625 163.253906 233.777344 161.804688 C 236.691406 160.25 239.78125 158.945312 242.949219 157.933594 L 270.859375 148.996094 C 276.796875 147.101562 282.96875 146.136719 289.207031 146.136719 L 310.78125 146.136719 C 317.027344 146.136719 323.203125 147.101562 329.140625 148.996094 L 357.050781 157.925781 C 359.910156 158.839844 362.714844 159.996094 365.382812 161.359375 C 368.109375 162.761719 369.195312 166.113281 367.796875 168.84375 C 366.394531 171.574219 363.046875 172.660156 360.308594 171.257812 C 358.1875 170.175781 355.949219 169.25 353.664062 168.519531 L 325.753906 159.59375 C 320.910156 158.039062 315.878906 157.253906 310.78125 157.253906 L 289.207031 157.253906 C 284.121094 157.253906 279.089844 158.039062 274.246094 159.585938 L 246.335938 168.519531 C 243.808594 169.332031 241.34375 170.367188 239.011719 171.617188 C 238.175781 172.0625 237.285156 172.273438 236.402344 172.273438" fill="#ef6d07"/></g><g id="change1_10"><path d="M 300 58.515625 C 279.875 58.515625 265.277344 75.53125 265.277344 98.960938 C 265.277344 124.09375 281.503906 146.136719 300 146.136719 C 318.496094 146.136719 334.726562 124.09375 334.726562 98.960938 C 334.726562 75.53125 320.125 58.515625 300 58.515625 Z M 300 157.253906 C 275.152344 157.253906 254.152344 130.558594 254.152344 98.960938 C 254.152344 69.566406 273.863281 47.402344 300 47.402344 C 326.136719 47.402344 345.847656 69.566406 345.847656 98.960938 C 345.847656 130.558594 324.847656 157.253906 300 157.253906" fill="#ef6d07"/></g><g id="change1_11"><path d="M 134.0625 124.867188 C 132.078125 124.867188 130.15625 123.800781 129.152344 121.929688 C 127.710938 119.222656 128.730469 115.851562 131.4375 114.402344 C 134.363281 112.847656 137.449219 111.542969 140.617188 110.527344 L 168.519531 101.59375 C 174.464844 99.699219 180.636719 98.734375 186.878906 98.734375 L 208.449219 98.734375 C 214.6875 98.734375 220.863281 99.699219 226.808594 101.59375 L 238.363281 105.289062 C 241.289062 106.226562 242.898438 109.355469 241.960938 112.28125 C 241.027344 115.203125 237.902344 116.816406 234.976562 115.886719 L 223.421875 112.191406 C 218.578125 110.636719 213.539062 109.847656 208.449219 109.847656 L 186.878906 109.847656 C 181.789062 109.847656 176.757812 110.636719 171.914062 112.191406 L 144.003906 121.117188 C 141.46875 121.929688 139.011719 122.964844 136.679688 124.214844 C 135.84375 124.660156 134.945312 124.867188 134.0625 124.867188" fill="#ef6d07"/></g><g id="change1_12"><path d="M 197.667969 11.121094 C 177.542969 11.121094 162.945312 28.128906 162.945312 51.558594 C 162.945312 76.6875 179.164062 98.734375 197.667969 98.734375 C 216.164062 98.734375 232.390625 76.6875 232.390625 51.558594 C 232.390625 28.128906 217.785156 11.121094 197.667969 11.121094 Z M 197.667969 109.847656 C 172.8125 109.847656 151.820312 83.152344 151.820312 51.558594 C 151.820312 22.164062 171.53125 0 197.667969 0 C 223.804688 0 243.515625 22.164062 243.515625 51.558594 C 243.515625 83.152344 222.515625 109.847656 197.667969 109.847656" fill="#ef6d07"/></g><g id="change1_13"><path d="M 594.429688 293.730469 C 594.390625 293.730469 594.351562 293.730469 594.308594 293.730469 C 591.238281 293.667969 588.808594 291.132812 588.871094 288.0625 C 589.277344 268.761719 576.71875 251.175781 558.328125 245.285156 L 530.429688 236.355469 C 525.582031 234.808594 520.542969 234.023438 515.453125 234.023438 L 493.878906 234.023438 C 488.792969 234.023438 483.761719 234.808594 478.914062 236.355469 L 467.363281 240.050781 C 464.4375 241 461.3125 239.378906 460.371094 236.453125 C 459.433594 233.527344 461.046875 230.402344 463.96875 229.460938 L 475.527344 225.769531 C 481.46875 223.863281 487.644531 222.898438 493.878906 222.898438 L 515.453125 222.898438 C 521.691406 222.898438 527.875 223.863281 533.8125 225.769531 L 561.714844 234.695312 C 584.757812 242.066406 600.496094 264.105469 599.988281 288.296875 C 599.921875 291.324219 597.441406 293.730469 594.429688 293.730469" fill="#ef6d07"/></g><g id="change1_14"><path d="M 504.671875 135.289062 C 484.546875 135.289062 469.949219 152.292969 469.949219 175.730469 C 469.949219 200.855469 486.167969 222.898438 504.671875 222.898438 C 523.167969 222.898438 539.394531 200.855469 539.394531 175.730469 C 539.394531 152.292969 524.789062 135.289062 504.671875 135.289062 Z M 504.671875 234.023438 C 479.816406 234.023438 458.824219 207.328125 458.824219 175.730469 C 458.824219 146.332031 478.535156 124.164062 504.671875 124.164062 C 530.808594 124.164062 550.511719 146.332031 550.511719 175.730469 C 550.511719 207.328125 529.519531 234.023438 504.671875 234.023438" fill="#ef6d07"/></g><g id="change1_15"><path d="M 465.9375 124.867188 C 465.054688 124.867188 464.15625 124.660156 463.320312 124.214844 C 460.988281 122.964844 458.523438 121.929688 455.996094 121.117188 L 428.085938 112.191406 C 423.242188 110.636719 418.210938 109.847656 413.121094 109.847656 L 391.550781 109.847656 C 386.460938 109.847656 381.429688 110.636719 376.578125 112.191406 L 365.023438 115.886719 C 362.105469 116.816406 358.972656 115.203125 358.039062 112.28125 C 357.101562 109.355469 358.714844 106.226562 361.636719 105.289062 L 373.191406 101.59375 C 379.136719 99.699219 385.3125 98.734375 391.550781 98.734375 L 413.121094 98.734375 C 419.359375 98.734375 425.535156 99.699219 431.480469 101.59375 L 459.382812 110.527344 C 462.550781 111.542969 465.636719 112.847656 468.5625 114.402344 C 471.269531 115.851562 472.289062 119.222656 470.847656 121.929688 C 469.84375 123.800781 467.921875 124.867188 465.9375 124.867188" fill="#ef6d07"/></g><g id="change1_16"><path d="M 402.332031 11.121094 C 382.214844 11.121094 367.605469 28.128906 367.605469 51.558594 C 367.605469 76.6875 383.835938 98.734375 402.332031 98.734375 C 420.835938 98.734375 437.054688 76.6875 437.054688 51.558594 C 437.054688 28.128906 422.457031 11.121094 402.332031 11.121094 Z M 402.332031 109.847656 C 377.484375 109.847656 356.492188 83.152344 356.492188 51.558594 C 356.492188 22.164062 376.195312 0 402.332031 0 C 428.46875 0 448.179688 22.164062 448.179688 51.558594 C 448.179688 83.152344 427.1875 109.847656 402.332031 109.847656" fill="#ef6d07"/></g><g id="change1_17"><path d="M 299.617188 196.113281 C 244.179688 196.113281 199.070312 241.21875 199.070312 296.65625 C 199.070312 352.097656 244.179688 397.207031 299.617188 397.207031 C 355.058594 397.207031 400.167969 352.097656 400.167969 296.65625 C 400.167969 241.21875 355.058594 196.113281 299.617188 196.113281 Z M 299.617188 408.320312 C 238.046875 408.320312 187.953125 358.230469 187.953125 296.65625 C 187.953125 235.085938 238.046875 184.992188 299.617188 184.992188 C 361.191406 184.992188 411.285156 235.085938 411.285156 296.65625 C 411.285156 358.230469 361.191406 408.320312 299.617188 408.320312" fill="#ef6d07"/></g><g id="change1_18"><path d="M 220.523438 302.222656 C 217.445312 302.222656 214.957031 299.726562 214.957031 296.65625 C 214.957031 280.4375 219.582031 264.65625 228.332031 251.035156 C 229.992188 248.445312 233.429688 247.699219 236.011719 249.359375 C 238.597656 251.019531 239.351562 254.457031 237.691406 257.039062 C 230.097656 268.867188 226.078125 282.566406 226.078125 296.65625 C 226.078125 299.726562 223.59375 302.222656 220.523438 302.222656" fill="#ef6d07"/></g><g clip-path="url(#a)" id="change1_19"><path d="M 466.738281 489.800781 C 462.988281 489.800781 459.464844 488.332031 456.816406 485.683594 L 357.796875 386.65625 C 355.617188 384.488281 355.617188 380.972656 357.796875 378.800781 C 359.96875 376.628906 363.484375 376.628906 365.65625 378.800781 L 464.683594 477.816406 C 465.78125 478.917969 467.703125 478.917969 468.808594 477.816406 L 480.777344 465.84375 C 481.914062 464.710938 481.914062 462.855469 480.777344 461.71875 L 381.753906 362.691406 C 379.582031 360.523438 379.582031 356.996094 381.753906 354.835938 C 383.925781 352.65625 387.449219 352.65625 389.621094 354.835938 L 488.644531 453.851562 C 494.113281 459.332031 494.113281 468.234375 488.644531 473.710938 L 476.664062 485.683594 C 474.015625 488.332031 470.492188 489.800781 466.738281 489.800781" fill="#ef6d07"/></g></g></svg>