<?xml version="1.0" encoding="UTF-8" standalone="no"?><svg xmlns="http://www.w3.org/2000/svg" xmlns:xlink="http://www.w3.org/1999/xlink" fill="#f46b02" height="521.3" preserveAspectRatio="xMidYMid meet" version="1" viewBox="-25.6 -10.4 553.8 521.3" width="553.8" zoomAndPan="magnify"><g id="change1_1"><path d="M465.8,373c-2-1.2-4-2.3-6-3.4c67.1-51.5,68.4-159.1,3.5-212c-70.7-60.5-183.5-30.8-215.3,56.4 c-37.3-21.2-86.7-14.7-117.4,15.5c-1-5.4-1.9-10.8-2.9-16.3c76.1-29.9,82.7-140.5,21.3-188C106.8-9.8,44.2,1.4,16.8,48.8 c-42.4,67.8,5.7,170.8,84.7,169.2l7.6,42.7c-13,29.3-9.8,63.6,6.3,90.9C33.8,330-8.5,441,66.7,479.3c56.8,27,117.7-32,92.1-89.5 c11.9,5.5,24.9,8.5,38.3,8.8c-12.5,12.4-29.5,26-25.8,45.8c1.5,10,7.4,18.7,16.1,23.9c14.8,8.8,30.1,16.3,45.2,22.3 c34.2,13.5,71.3,20.3,106.9,14.8c33.6-4.7,69.6-23.1,97.6-46.1c12.7-10.2,25-21.9,36.5-34.8C487.8,409.5,483.8,383.1,465.8,373z M501.3,272.6c-5,31.8-16.9,61.2-41.4,83c-25.2-22.7-40-54.4-41.4-88.2c0,0,82.8,0,82.8,0C501.8,267.4,501.7,269.4,501.3,272.6z M459.9,168.7c25,22.4,40,54.8,41.4,88.2h-82.8C419.8,223.1,434.7,191.4,459.9,168.7z M380.7,136.4c25.7,1.1,50.5,10,70.9,25.6 c-26.7,24.6-42.3,58.7-43.7,94.9h-27.2V136.4z M380.7,267.4h27.2c1.4,36.3,17.1,70.4,43.8,95c-0.7,0.5-1.4,1-2.1,1.6 c-21.8-11.2-44.9-20.2-68.9-25.4V267.4z M370.2,136.4v120.5H343c-1.4-36.3-17-70.3-43.7-95C319.7,146.4,344.5,137.5,370.2,136.4z M296.2,280.9c-0.9-4.6-2.1-9.1-3.6-13.5c0,0,39.9,0,39.9,0c2.5,0-7.7,39-9.1,42.3c-4.3,9.3-8.7,20.5-16.3,27.5 c-5.5,2.8-12.3,2.3-18.1,4.4C297.5,322.9,300.2,301.3,296.2,280.9z M343,267.4h27.3v69.2c-15.9-2.5-32-3.3-48-1.8 C335,314.6,342.1,291.6,343,267.4z M259.5,212.1c7.9-16.2,18.1-31.4,31.6-43.4c25.1,22.7,39.9,54.4,41.3,88.2c0,0-44.3,0-44.3,0 c-0.6,0-8.7-14.6-9.6-15.9c-6.1-8.1-13.5-15.3-21.7-21.3C256.3,219.3,257.6,216.1,259.5,212.1z M285,279.2l-18-10.4v-21l2.4-1.4 C276.6,255.6,282.1,267.6,285,279.2z M181.3,213.7c10-2.1,20.4-2.5,30.5-1c5.4,0.8,5.2,0.6,5.8,5.4c0.1,0.7,0.6,6.4,0,6.8 l-18.1,10.5l-18.1-10.5V213.7z M129.5,246.5c0.2-0.2,0.4-0.5,0.5-0.7l3.4,2v21l-18.1,10.5l-1.3-0.8 C116.9,266.9,122.2,256,129.5,246.5z M13.3,126C2.5,74.4,37.4,14.4,92.1,15.1c43.6-0.1,79.6,38.4,86.6,81.5 C196.4,223.6,40.5,251.3,13.3,126z M117.5,216.2c1.2,7.7,3.1,15.4,4,23.2c-1.2,2.3-3,4.2-4.4,6.4c-1.7-9.5-3.4-19.1-5-28.6 C112,217.1,117.1,216.3,117.5,216.2z M41.2,436.4c-10.8-29.2,6.1-64.3,35.8-73.9c11.4,29.3-5.5,65-35.4,74.8 C41.5,437,41.3,436.7,41.2,436.4z M104.9,474.6c-23,3.8-47.2-7.7-58.8-27.8C80.4,435.1,99.8,394,87.2,360 c22.9-4.1,47.1,7.8,58.8,27.8C111.6,399.4,92.1,440.7,104.9,474.6z M153.7,422.2c-0.6,6.6-2.3,13-5,19.1 c-4.3,9.6-19.1,31.2-31.6,30.1c-5.6-0.5-5.7-15.1-5.6-20.3c0.2-23.8,16.4-46.3,39-53.8C153.5,405.1,154.4,413.7,153.7,422.2z M156.9,374.5l-2.3,1.3c-10.9-6.4-20.6-15.4-27.8-25.9l11.9-6.9l18.2,10.5V374.5z M165.8,381.4c1.1-1,1.7-2.4,1.7-3.8v-27 c0-1.9-1-3.6-2.6-4.6c-7-4-13.4-10.1-21.4-12.6c-8.5-2.7-14.9,3.5-22,7.6c-4.4-8.2-7.3-17.1-8.9-26.3c-0.5-3.1,0-24.9-0.5-25.2 c5.6,3.2,15-3.8,19.8-6.5c5.9-3.3,12-7.8,12.1-15.2c0.1-7.7,0-15.4,0-23c0.3-3.7-4.3-5.4-6.9-7c9.4-9.6,21.1-16.9,33.7-21.2v11.3 c0,1.9,1,3.6,2.6,4.6c1,0.3,25.6,15.5,26,14.2c0.3,1.4,25-13.9,26-14.2c1.6-0.9,2.6-2.7,2.6-4.6v-11.3c12.9,4.4,24.7,12,34.3,21.7 c-2.5,1.4-6.2,3-6,6.5c0,0,0,27,0,27c0,1.9,1,3.6,2.6,4.6l23.4,13.5c1.4,0.8,3.1,0.9,4.5,0.3c-0.4,0.1-0.7,18.5-0.9,20.1 c-0.3,4.2-6.2,31.2-8.4,30c0,0-13.4-7.8-13.4-7.8c-1.6-0.9-3.6-0.9-5.3,0L235.7,346c-1.6,0.9-2.6,2.7-2.6,4.5c0,0,0,18.7,0,18.7 c-8.3,5.7-16.3,11.8-23.9,18.3C194.7,389.3,179.1,387,165.8,381.4z M270.8,348.3c-4.1,2.2-25.6,10.1-27.2,14.1v-8.9l18.1-10.5 L270.8,348.3z M192.7,459.2c-12.4-6.9-15.2-25.1-5.4-35.4c8.8-9.9,18.3-19.2,28.2-27.7l12.4,81.1 C216.1,472.1,204.3,466.1,192.7,459.2z M252.5,486.4c-4.5-1.4-8.9-3-13.3-4.7l-14.3-93.4c5.2-4.1,10.4-7.9,15.9-11.5l17,111.1 C256,487.4,254.3,487,252.5,486.4z M337.9,495c-21.6,3.3-44.8,1.9-69-3.9c0,0-18.4-120.4-18.4-120.4c-0.3-2.9,24.4-12.5,27.5-13.7 c33.6-13.9,71.1-15.6,106.3-6.7l18.4,120.4C381.3,483.4,359.5,491.7,337.9,495z M418.9,459.9c-2.2,1.6-4.4,3-6.7,4.5l-17-111.1 c6.3,1.7,12.4,3.9,18.6,6.2l14.3,93.4C425.1,455.3,422,457.6,418.9,459.9z M465.8,417.5c-9,10-18.5,19.2-28.2,27.7L425.2,364 c11.9,5.4,24.4,10.5,35.1,18.1C471.2,390.9,476.7,405.4,465.8,417.5z M382.4,406.8c6.8-1,8.3,9.3,1.6,10.4c0,0-8,1.2-8,1.2l1.4,9 c0.4,2.9-1.5,5.6-4.4,6c-2.8,0.4-5.6-1.5-6-4.4c0,0-1.4-9-1.4-9l-11.3,1.7l1.4,9c0.4,2.9-1.5,5.6-4.4,6c-2.8,0.4-5.6-1.5-6-4.4 c0,0-1.4-9-1.4-9l-11.3,1.7l1.4,9c0.4,2.9-1.5,5.6-4.4,6c-2.8,0.4-5.6-1.5-6-4.4c0,0-1.4-9-1.4-9l-11.3,1.7l1.4,9 c0.4,2.9-1.5,5.6-4.4,6c-2.8,0.4-5.6-1.5-6-4.4c0,0-1.4-9-1.4-9l-11.3,1.7l1.4,9c0.4,2.9-1.5,5.6-4.4,6c-2.8,0.4-5.6-1.5-6-4.4 c0,0-1.4-9-1.4-9c-4.6,0.4-12.6,3.8-14-3.2c-0.4-2.9,1.5-5.6,4.4-6l8-1.2l-1.4-9c-0.4-2.9,1.5-5.6,4.4-6c2.9-0.4,5.6,1.5,6,4.4 l1.4,9l11.3-1.7l-1.4-9c-0.4-2.9,1.5-5.6,4.4-6c2.9-0.5,5.6,1.5,6,4.4l1.4,9l11.3-1.7l-1.4-9c-0.4-2.9,1.5-5.6,4.4-6 c2.9-0.5,5.6,1.5,6,4.4l1.4,9l11.3-1.7l-1.4-9c-0.4-2.9,1.5-5.6,4.4-6c2.9-0.4,5.6,1.5,6,4.4l1.4,9l11.3-1.7l-1.4-9 c-0.4-2.9,1.5-5.6,4.4-6c2.9-0.4,5.6,1.5,6,4.4l1.4,9L382.4,406.8z M225.5,318c1.6-0.9,2.6-2.7,2.6-4.6v-27c0-1.9-1-3.6-2.6-4.6 l-23.4-13.5c-1.6-0.9-3.6-0.9-5.3,0l-23.4,13.5c-1.6,0.9-2.6,2.7-2.6,4.6v27c0,1.9,1,3.6,2.6,4.6c1,0.3,25.7,15.6,26,14.2 C199.8,333.7,224.6,318.3,225.5,318z M181.3,310.5v-21l18.2-10.5l18.1,10.5v21l-18.1,10.5L181.3,310.5z M130.2,194 c58-28.1,59.7-117.4,10.4-155.2C76.9-10.4,3.3,52.1,17.5,125.3C25.1,176.8,80.8,218.9,130.2,194z M159.7,146.5l-0.2,0l-4.1-23.2 l10-1.8C164.7,130.4,162.8,138.8,159.7,146.5z M164.2,99.2c0.7,3.9,1,7.8,1.2,11.7l-11.9,2.1l-4.1-23.1l11.9-2.1 C162.5,91.5,163.5,95.3,164.2,99.2z M143.7,56.3c5.6,6.3,10.3,13.5,13.8,21.5l-10,1.8l-4.1-23.2L143.7,56.3z M143.2,114.9L120,119 l-4.1-23.1l23.2-4.1L143.2,114.9z M137.2,81.4L114,85.5l-4.1-23.2l23.2-4.1L137.2,81.4z M130.7,44.5l0.6,3.3L108.1,52l-3.3-18.8 C113.8,34.9,122.6,38.8,130.7,44.5z M109.7,120.8l-23.2,4.1l-4.1-23.1l23.2-4.1L109.7,120.8z M99.6,64.2l4.1,23.2l-23.2,4.1 l-4.1-23.2L99.6,64.2z M82.1,32.8c3.9-0.7,7.9-1.1,11.8-0.9l3.9,21.9l-23.2,4.1l-3.9-21.8C74.3,34.7,78.1,33.5,82.1,32.8z M70.2,93.3L47,97.4l-4.1-23.2l23.1-4.1L70.2,93.3z M60.9,41l3.3,18.8l-23.1,4.1l-0.6-3.3C46.1,52.4,53,45.8,60.9,41z M32.3,76.1 l0.3-0.1l4.1,23.2l-10,1.8C27.3,92.4,29.2,84,32.3,76.1z M27.8,123.4c-0.7-3.9-1.1-7.8-1.2-11.7l11.9-2.1l4.1,23.1l-11.9,2.1 C29.6,131.1,28.5,127.3,27.8,123.4z M48.3,166.3c-5.6-6.3-10.3-13.5-13.8-21.5l10-1.8l4.1,23.2L48.3,166.3z M53,130.9l-4.1-23.1 l23.1-4.1l4.1,23.1L53,130.9z M54.8,141.2l23.1-4.1l4.1,23.2l-23.1,4.1L54.8,141.2z M61.4,178l-0.6-3.3l23.1-4.1l3.3,18.8 C78.2,187.6,69.4,183.8,61.4,178z M88.3,135.3l23.2-4.1l4.1,23.2l-23.2,4.1L88.3,135.3z M110,189.8c-3.9,0.7-7.9,0.9-11.8,0.9 l-3.9-21.8l23.2-4.1l3.9,21.8C117.7,187.9,113.9,189.1,110,189.8z M121.8,129.3l23.2-4.1l4.1,23.2l-23.2,4.1L121.8,129.3z M151,158.7l0.6,3.2c-5.5,8-12.4,14.8-20.4,19.7l-3.3-18.8L151,158.7z"/></g></svg>