<?xml version="1.0" encoding="UTF-8" standalone="no"?><svg xmlns="http://www.w3.org/2000/svg" xmlns:xlink="http://www.w3.org/1999/xlink" fill="#f46b02" height="404.3" preserveAspectRatio="xMidYMid meet" version="1" viewBox="0.0 0.0 408.6 404.3" width="408.6" zoomAndPan="magnify"><g id="change1_1"><path d="M383.409,344.915v-73.466c0-6.602-4.829-12.119-11.127-13.224V49.556c0,0-32.935-49.556-167.987-49.556 S36.308,49.556,36.308,49.556v208.668c-6.298,1.106-11.127,6.622-11.127,13.224v73.466c0,7.391,6.048,13.439,13.439,13.439H369.97 C377.362,358.354,383.409,352.306,383.409,344.915z M363.21,308.182c0,16.329-13.237,29.566-29.566,29.566 c-16.329,0-29.566-13.237-29.566-29.566c0-16.329,13.237-29.566,29.566-29.566C349.973,278.616,363.21,291.853,363.21,308.182z M147.179,312.549v-8.735H261.41v8.735H147.179z M261.41,320.949v8.735H147.179v-8.735H261.41z M147.179,284.664v-8.735H261.41 v8.735H147.179z M74.945,278.616c16.329,0,29.566,13.237,29.566,29.566c0,16.329-13.237,29.566-29.566,29.566 c-16.329,0-29.566-13.237-29.566-29.566C45.379,291.853,58.616,278.616,74.945,278.616z M350.331,112.272v79.738 c0,7.391-6.048,13.439-13.439,13.439H210.678V98.833h126.214C344.284,98.833,350.331,104.88,350.331,112.272z M330.339,44.629 c4.886,0,8.847,3.961,8.847,8.847s-3.961,8.847-8.847,8.847s-8.847-3.961-8.847-8.847S325.453,44.629,330.339,44.629z M304.361,44.629c4.886,0,8.847,3.961,8.847,8.847s-3.961,8.847-8.847,8.847s-8.847-3.961-8.847-8.847 S299.475,44.629,304.361,44.629z M132.06,42.837c0-7.391,6.048-13.439,13.439-13.439H263.09c7.391,0,13.439,6.048,13.439,13.439 v15.455c0,7.391-6.047,13.439-13.439,13.439H145.499c-7.391,0-13.439-6.048-13.439-13.439V42.837z M104.228,44.629 c4.886,0,8.847,3.961,8.847,8.847s-3.961,8.847-8.847,8.847c-4.886,0-8.847-3.961-8.847-8.847S99.342,44.629,104.228,44.629z M78.251,44.629c4.886,0,8.847,3.961,8.847,8.847s-3.961,8.847-8.847,8.847s-8.847-3.961-8.847-8.847S73.364,44.629,78.251,44.629z M58.258,112.272c0-7.391,6.048-13.439,13.439-13.439h126.214v106.616H71.697c-7.391,0-13.439-6.048-13.439-13.439V112.272z" fill="inherit"/><path d="M58.818,404.345h18.815c7.391,0,13.439-6.047,13.439-13.439V368.62H45.379v22.286 C45.379,398.298,51.426,404.345,58.818,404.345z" fill="inherit"/><path d="M317.518,390.906c0,7.391,6.048,13.439,13.439,13.439h18.814c7.392,0,13.439-6.047,13.439-13.439V368.62h-45.692V390.906z" fill="inherit"/><path d="M26.206,188.65v-77.274c0-1.478-1.209-2.688-2.688-2.688H2.688c-1.478,0-2.688,1.21-2.688,2.688v77.274 c0,1.478,1.209,2.688,2.688,2.688h20.83C24.996,191.337,26.206,190.128,26.206,188.65z" fill="inherit"/><path d="M405.902,191.337c1.478,0,2.688-1.209,2.688-2.688v-77.274c0-1.478-1.21-2.688-2.688-2.688h-20.83 c-1.478,0-2.688,1.21-2.688,2.688v77.274c0,1.478,1.209,2.688,2.688,2.688H405.902z" fill="inherit"/><path d="M151.161,60.539c3.164,0,5.314-2.004,5.314-4.937c0-1.306-0.465-2.584-1.249-3.543c-0.639-0.784-1.248-1.335-2.874-2.613 c-2.062-1.568-2.062-1.568-2.555-2.12c-0.522-0.552-0.814-1.278-0.814-1.946c0-1.133,0.843-1.974,1.946-1.974 c1.219,0,2.091,0.958,2.555,2.875l2.874-0.842c-0.812-3.194-2.671-4.849-5.429-4.849c-2.962,0-5.053,1.974-5.053,4.762 c0,1.19,0.378,2.323,1.075,3.223c0.726,0.929,0.841,1.046,3.542,3.165c2.265,1.771,2.874,2.555,2.874,3.774 c0,1.307-0.9,2.207-2.206,2.207c-1.597,0-2.614-1.161-2.991-3.484l-2.875,0.842C145.905,58.767,147.851,60.539,151.161,60.539z" fill="inherit"/><path d="M163.903,60.539c3.484,0,5.314-2.207,5.314-6.418v-0.668h-3.02c-0.029,1.423-0.058,1.858-0.175,2.352 c-0.319,1.278-1.045,1.916-2.148,1.916c-0.871,0-1.626-0.493-1.916-1.249c-0.232-0.638-0.32-1.394-0.32-2.874v-6.447 c0-1.568,0.088-2.148,0.465-2.788c0.32-0.61,0.959-0.958,1.772-0.958c1.48,0,2.265,1.133,2.265,3.368v0.406h2.991v-0.58 c0-3.804-1.946-6.011-5.256-6.011c-1.801,0-3.252,0.638-4.095,1.8c-0.899,1.22-1.133,2.294-1.133,5.372v5.429 c0,2.875,0.203,4.007,0.929,5.198C160.418,59.783,161.958,60.539,163.903,60.539z" fill="inherit"/><path d="M174.729 51.711L178.998 51.711 178.998 60.248 181.989 60.248 181.989 40.88 178.998 40.88 178.998 48.953 174.729 48.953 174.729 40.88 171.738 40.88 171.738 60.248 174.729 60.248z" fill="inherit"/><path d="M189.999,60.539c1.858,0,3.311-0.639,4.181-1.858c0.785-1.104,1.104-2.41,1.104-4.588v-7.056 c0-2.178-0.319-3.484-1.104-4.587c-0.87-1.22-2.323-1.858-4.181-1.858c-1.858,0-3.31,0.638-4.181,1.858 c-0.784,1.103-1.104,2.41-1.104,4.587v7.056c0,2.178,0.32,3.484,1.104,4.588C186.689,59.899,188.14,60.539,189.999,60.539z M187.705,47.094c0-1.539,0.088-2.062,0.378-2.643c0.348-0.638,1.075-1.045,1.916-1.045c0.843,0,1.568,0.407,1.917,1.045 c0.319,0.61,0.377,1.074,0.377,2.643v6.94c0,1.568-0.058,2.032-0.377,2.642c-0.349,0.639-1.075,1.045-1.917,1.045 c-0.841,0-1.568-0.406-1.916-1.045c-0.29-0.581-0.378-1.103-0.378-2.642V47.094z" fill="inherit"/><path d="M203.119,60.539c1.858,0,3.31-0.639,4.181-1.858c0.785-1.104,1.104-2.41,1.104-4.588v-7.056 c0-2.178-0.319-3.484-1.104-4.587c-0.871-1.22-2.323-1.858-4.181-1.858c-1.858,0-3.31,0.638-4.181,1.858 c-0.784,1.103-1.102,2.41-1.102,4.587v7.056c0,2.178,0.319,3.484,1.102,4.588C199.809,59.899,201.26,60.539,203.119,60.539z M200.825,47.094c0-1.539,0.088-2.062,0.378-2.643c0.349-0.638,1.075-1.045,1.916-1.045c0.843,0,1.568,0.407,1.916,1.045 c0.32,0.61,0.378,1.074,0.378,2.643v6.94c0,1.568-0.058,2.032-0.378,2.642c-0.348,0.639-1.074,1.045-1.916,1.045 c-0.841,0-1.567-0.406-1.916-1.045c-0.29-0.581-0.378-1.103-0.378-2.642V47.094z" fill="inherit"/><path d="M220.101 57.489L214.148 57.489 214.148 40.88 211.157 40.88 211.157 60.248 220.101 60.248z" fill="inherit"/><path d="M236.996,54.76c0-2.555-1.046-3.891-3.659-4.646c2.179-0.668,3.194-2.033,3.194-4.327c0-3.135-2.033-4.907-5.662-4.907 h-4.473v19.368h4.849C234.847,60.248,236.996,58.186,236.996,54.76z M229.388,43.639h1.133c1.133,0,1.743,0.175,2.236,0.61 c0.465,0.436,0.726,1.074,0.726,1.801c0,1.655-1.19,2.729-3.02,2.729h-1.075V43.639z M229.388,57.489v-5.952h1.075 c2.091,0,3.427,1.278,3.427,3.223c0,1.742-1.075,2.729-2.991,2.729H229.388z" fill="inherit"/><path d="M244.774,60.539c1.742,0,3.164-0.61,4.007-1.743c0.812-1.103,1.104-2.352,1.104-4.791V40.88h-2.991v13.619 c0,2.293-0.61,3.223-2.12,3.223c-1.539,0-2.15-0.929-2.15-3.223V40.88h-2.991v13.125c0,2.439,0.291,3.688,1.104,4.791 C241.58,59.928,243.003,60.539,244.774,60.539z" fill="inherit"/><path d="M257.981,57.721c-1.597,0-2.613-1.161-2.991-3.484l-2.874,0.842c0.609,3.688,2.554,5.46,5.865,5.46 c3.164,0,5.314-2.004,5.314-4.937c0-1.306-0.465-2.584-1.249-3.543c-0.638-0.784-1.248-1.335-2.874-2.613 c-2.062-1.568-2.062-1.568-2.555-2.12c-0.522-0.552-0.814-1.278-0.814-1.946c0-1.133,0.843-1.974,1.946-1.974 c1.219,0,2.091,0.958,2.555,2.875l2.874-0.842c-0.812-3.194-2.671-4.849-5.429-4.849c-2.962,0-5.053,1.974-5.053,4.762 c0,1.19,0.378,2.323,1.075,3.223c0.726,0.929,0.841,1.046,3.542,3.165c2.265,1.771,2.874,2.555,2.874,3.774 C260.187,56.822,259.287,57.721,257.981,57.721z" fill="inherit"/><path d="M258.128,139.323c0,12.427,10.072,22.5,22.5,22.5c12.426,0,22.5-10.073,22.5-22.5c0-1.333-0.123-2.637-0.345-3.906 l0.508-9.398l-43.882-2.371l-10.534,9.093l10.079,0.545C258.42,135.207,258.128,137.23,258.128,139.323z" fill="inherit"/><path d="M303.446 123.144L303.796 116.662 252.845 108.689 259.292 120.758z" fill="inherit"/><path d="M309.44,171.458c-3.247-2.872-6.389-3.705-8.57-3.877c-0.304-0.036-0.612-0.061-0.926-0.061H261.31 c-0.314,0-0.622,0.024-0.926,0.061c-2.18,0.171-5.321,1.005-8.568,3.877c-5.477,4.844-9.32,13.862-11.568,27.208h80.76 C318.76,185.319,314.917,176.302,309.44,171.458z" fill="inherit"/></g></svg>