<?xml version="1.0" encoding="UTF-8"?>
<!-- Generator: visioncortex VTracer 0.6.3 -->
<svg version="1.1" xmlns="http://www.w3.org/2000/svg" width="618" height="548">
<path d="M0 0 C4.52 4.36 6.31 8.39 7.12 14.62 C6.45 27.7 -5.96 37.55 -14.66 46.06 C-16.38 47.81 -17.97 49.63 -19.56 51.49 C-23.41 55.92 -27.51 60.06 -31.69 64.19 C-32.85 65.34 -32.85 65.34 -34.03 66.52 C-37.3 69.77 -40.57 73.02 -43.85 76.27 C-46.26 78.66 -48.66 81.05 -51.06 83.44 C-51.79 84.16 -52.52 84.88 -53.27 85.62 C-56.53 88.86 -59.69 92.12 -62.67 95.61 C-66.98 100.6 -71.67 105.22 -76.35 109.86 C-78.01 111.51 -79.66 113.16 -81.32 114.81 C-85.43 118.9 -89.54 123 -93.66 127.09 C-97.15 130.56 -100.64 134.03 -104.12 137.5 C-105.74 139.12 -107.36 140.73 -108.99 142.34 C-113.82 147.14 -118.55 151.98 -122.96 157.18 C-126.03 160.73 -129.53 163.87 -132.92 167.1 C-138.41 173.16 -139.59 179.11 -139.29 187.06 C-139.25 188.31 -139.2 189.57 -139.16 190.86 C-139.08 192.81 -139.08 192.81 -139 194.81 C-138.96 196.03 -138.91 197.24 -138.87 198.49 C-138.63 205 -138.39 211.51 -138.12 218.02 C-137.32 238.2 -137.17 258.36 -137.19 278.56 C-137.19 279.41 -137.19 280.27 -137.19 281.14 C-137.2 310.07 -137.56 338.93 -139.38 367.81 C-139.47 369.38 -139.47 369.38 -139.57 370.98 C-141.96 408.45 -145.36 445.86 -150.5 483.06 C-150.72 484.68 -150.72 484.68 -150.94 486.32 C-152.29 495.55 -154.02 505.59 -160.38 512.81 C-170.65 520.44 -184.69 521.59 -197.06 523.25 C-198.57 523.46 -200.07 523.67 -201.57 523.87 C-232.35 528.08 -263.25 531.47 -294.23 533.66 C-296.31 533.81 -298.38 533.97 -300.46 534.13 C-384.09 540.56 -483.49 542.83 -579.42 507.61 C-606.8 482.47 -605.8 425.34 -607.38 390.81 C-607.55 385.26 -607.56 379.71 -607.58 374.16 C-607.59 372.58 -607.59 371.01 -607.6 369.44 C-607.62 364.4 -607.62 359.36 -607.62 354.31 C-607.63 353.45 -607.63 352.58 -607.63 351.69 C-607.63 319.98 -606.76 288.45 -604.38 256.81 C-604.28 255.56 -604.19 254.31 -604.09 253.02 C-603.39 243.76 -602.64 234.5 -601.88 225.25 C-601.77 224.03 -601.67 222.81 -601.57 221.55 C-600.55 209.42 -599.42 197.31 -597.97 185.22 C-597.82 183.86 -597.82 183.86 -597.67 182.47 C-596.64 174.37 -594.4 165.66 -588.38 159.81 C-583.09 156.07 -577.61 156.06 -571.38 156.81 C-565.88 158.14 -563.03 160.8 -560 165.5 C-552.09 180.24 -555.63 198.24 -556.8 214.28 C-556.95 216.38 -557.1 218.48 -557.25 220.58 C-557.56 225.01 -557.88 229.44 -558.2 233.88 C-559.02 245.36 -559.82 256.85 -560.62 268.34 C-560.7 269.47 -560.78 270.59 -560.86 271.75 C-562.62 297.09 -564.24 322.43 -565.38 347.81 C-565.42 348.68 -565.46 349.56 -565.5 350.45 C-566.89 380.92 -565.21 410.23 -560.94 440.44 C-560.79 441.51 -560.64 442.58 -560.48 443.68 C-558.92 464.5 -558.92 464.5 -549.38 481.81 C-544.58 483.47 -540.16 484.13 -535.1 484.37 C-534.39 484.41 -533.69 484.44 -532.96 484.48 C-530.56 484.6 -528.17 484.7 -525.78 484.81 C-524.03 484.89 -522.28 484.97 -520.53 485.05 C-496.02 486.17 -471.49 486.91 -446.97 487.68 C-442.23 487.83 -437.49 487.98 -432.75 488.14 C-432.08 488.16 -431.41 488.18 -430.72 488.2 C-430.05 488.23 -429.38 488.25 -428.69 488.27 C-365.11 490.35 -365.11 490.35 -301.5 491.12 C-300.27 491.13 -300.27 491.13 -299.01 491.13 C-275.3 491.17 -251.72 490.66 -228.06 489 C-226.24 488.88 -226.24 488.88 -224.38 488.75 C-220.99 488.51 -217.59 488.25 -214.2 487.98 C-213.22 487.91 -212.25 487.84 -211.25 487.76 C-204.4 487.16 -197.86 485.96 -191.94 482.31 C-186.39 473.43 -187.79 459.55 -187.41 449.38 C-187.34 447.42 -187.26 445.47 -187.18 443.51 C-186.96 438.21 -186.76 432.92 -186.56 427.62 C-186.34 422.03 -186.12 416.44 -185.9 410.85 C-185.53 401.43 -185.17 392.01 -184.81 382.59 C-184.39 371.82 -183.97 361.04 -183.54 350.26 C-183.17 340.93 -182.81 331.61 -182.45 322.28 C-182.23 316.74 -182.02 311.21 -181.8 305.67 C-180.71 278.37 -180.12 251.14 -180.38 223.81 C-184.19 225.57 -186.14 227.59 -188.81 230.88 C-189.45 231.66 -189.45 231.66 -190.11 232.46 C-194.86 238.32 -199.4 244.32 -203.96 250.32 C-207.38 254.82 -210.84 259.29 -214.31 263.75 C-214.89 264.5 -215.47 265.24 -216.07 266.01 C-217.25 267.52 -218.43 269.03 -219.61 270.55 C-222.53 274.3 -225.45 278.06 -228.38 281.81 C-231.92 286.37 -235.47 290.93 -239.02 295.49 C-244.15 302.08 -249.28 308.68 -254.38 315.31 C-262.91 326.43 -271.52 337.48 -280.19 348.48 C-283.94 353.25 -287.66 358.03 -291.38 362.81 C-315.18 393.44 -315.18 393.44 -325.27 404.48 C-327.13 406.54 -328.91 408.63 -330.69 410.75 C-341.83 423.44 -354.68 433.9 -372.12 435.06 C-382.35 434.87 -390.57 430.16 -398 423.44 C-398.78 422.57 -399.57 421.7 -400.38 420.81 C-401.14 419.99 -401.14 419.99 -401.92 419.14 C-420.66 398.43 -431.09 370.68 -441.93 345.34 C-453.07 319.31 -464.24 293.3 -481.25 270.5 C-487.68 261.85 -492.86 252.96 -491.38 241.81 C-489.65 235.81 -486.33 232.08 -481 228.89 C-475.37 226.58 -469.67 226.51 -464 228.75 C-445.36 239.95 -435.91 262.23 -427.16 281 C-425.22 285.16 -423.25 289.3 -421.29 293.45 C-414.69 307.36 -408.14 321.28 -401.69 335.25 C-388.84 363.14 -388.84 363.14 -374.63 390.36 C-373.38 392.81 -373.38 392.81 -373.38 394.81 C-372.24 393.68 -371.11 392.55 -369.98 391.41 C-368.86 390.29 -367.72 389.19 -366.58 388.09 C-361.95 383.58 -357.83 378.82 -353.79 373.79 C-351.24 370.65 -348.63 367.57 -346 364.5 C-341.77 359.54 -337.71 354.47 -333.71 349.32 C-330.01 344.59 -326.21 339.94 -322.38 335.31 C-317.66 329.62 -313.03 323.88 -308.49 318.05 C-304.47 312.9 -300.34 307.83 -296.21 302.77 C-292.74 298.51 -289.32 294.21 -285.94 289.88 C-281.25 283.87 -276.43 278 -271.57 272.13 C-267.46 267.16 -263.45 262.13 -259.49 257.05 C-256.01 252.59 -252.45 248.2 -248.88 243.81 C-244.37 238.29 -239.93 232.72 -235.54 227.1 C-232.02 222.61 -228.43 218.17 -224.81 213.75 C-220.09 207.97 -215.5 202.1 -210.98 196.16 C-207.98 192.27 -204.86 188.48 -201.75 184.69 C-187.88 167.71 -183.27 156.89 -185.38 134.81 C-186.4 126.84 -187.45 118.63 -194.12 113.46 C-199.68 110.07 -205.48 109.15 -211.82 108.3 C-212.73 108.17 -213.65 108.04 -214.6 107.91 C-225.16 106.5 -235.76 105.59 -246.38 104.75 C-247.42 104.67 -248.47 104.58 -249.54 104.5 C-255.87 103.99 -262.21 103.5 -268.54 103.03 C-271.09 102.83 -273.64 102.64 -276.19 102.44 C-295.47 100.97 -314.75 100.6 -334.08 100.52 C-336.54 100.51 -339 100.49 -341.47 100.47 C-393.49 100.1 -445.58 104.75 -497.4 108.82 C-505.36 109.44 -513.32 110.06 -521.29 110.66 C-524.91 110.94 -528.52 111.23 -532.14 111.52 C-543.97 112.44 -555.77 113.02 -567.64 113.12 C-569.4 113.14 -569.4 113.14 -571.19 113.17 C-578.56 113.17 -583.69 112.6 -589.69 108.06 C-593.43 103.07 -594.13 96.88 -593.38 90.81 C-591.7 85.31 -589.28 81.8 -584.38 78.81 C-576.44 74.77 -568.18 73.56 -559.44 72.44 C-558.69 72.34 -557.94 72.24 -557.17 72.14 C-516.71 66.75 -475.99 63.03 -435.23 60.96 C-432.38 60.81 -429.53 60.66 -426.68 60.5 C-374.94 57.69 -322.06 56.49 -270.38 60.81 C-269.56 60.88 -268.74 60.95 -267.9 61.02 C-241.9 63.2 -216.38 66.35 -190.94 72.25 C-189.72 72.53 -188.51 72.8 -187.25 73.09 C-174.93 76.07 -164.75 81.09 -157.81 92 C-152.98 100.69 -148.38 111.79 -148.38 121.81 C-147.06 121.81 -145.74 121.81 -144.38 121.81 C-142.62 119.88 -142.62 119.88 -141.12 117.31 C-138.23 112.92 -135.13 109.37 -131.34 105.74 C-129.42 103.86 -127.68 101.91 -125.94 99.88 C-123.37 96.88 -120.68 94.08 -117.88 91.31 C-115.09 88.56 -112.42 85.78 -109.88 82.81 C-107.33 79.84 -104.66 77.06 -101.88 74.31 C-99.15 71.62 -96.54 68.91 -94.06 66 C-91 62.42 -87.72 59.12 -84.38 55.81 C-81.15 52.63 -77.98 49.47 -75.06 46 C-70.95 41.16 -66.37 36.78 -61.86 32.31 C-58.63 29.11 -55.46 25.9 -52.5 22.44 C-42.58 10.85 -30.51 0.17 -15.94 -5.06 C-9.7 -5.37 -4.86 -3.98 0 0 Z " fill="#FFFFFF" transform="translate(610.375,6.1875)"/>
</svg>
