<?xml version="1.0" encoding="UTF-8" standalone="no"?><svg xmlns="http://www.w3.org/2000/svg" xmlns:xlink="http://www.w3.org/1999/xlink" data-name="Layer 1" fill="#000000" height="651.3" preserveAspectRatio="xMidYMid meet" version="1" viewBox="109.3 154.8 781.4 651.3" width="781.4" zoomAndPan="magnify"><g fill="#f46b02"><g id="change1_13"><path d="m346.679,496.706h-146.768c-4.418,0-8-3.582-8-8v-12.724c0-32.085,26.104-58.188,58.188-58.188h46.391c32.085,0,58.188,26.103,58.188,58.188v12.724c0,4.418-3.582,8-8,8Zm-138.768-16h130.768v-4.724c0-23.263-18.926-42.188-42.188-42.188h-46.391c-23.263,0-42.188,18.926-42.188,42.188v4.724Z"/><path d="m273.295,433.015c-24.292,0-44.056-19.764-44.056-44.056s19.764-44.056,44.056-44.056,44.056,19.764,44.056,44.056-19.764,44.056-44.056,44.056Zm0-72.112c-15.47,0-28.056,12.586-28.056,28.056s12.586,28.056,28.056,28.056,28.056-12.586,28.056-28.056-12.586-28.056-28.056-28.056Z"/></g><g id="change1_5"><path d="m489.623,472.146h-27.975c-20.597,0-37.354-16.757-37.354-37.354v-27.974c0-20.597,16.757-37.354,37.354-37.354h27.975c20.597,0,37.354,16.757,37.354,37.354v27.974c0,20.597-16.757,37.354-37.354,37.354Zm-27.975-86.682c-11.774,0-21.354,9.579-21.354,21.354v27.974c0,11.774,9.579,21.354,21.354,21.354h27.975c11.774,0,21.354-9.58,21.354-21.354v-27.974c0-11.774-9.579-21.354-21.354-21.354h-27.975Z"/></g><g id="change1_6"><path d="m630.179,472.146h-27.974c-20.597,0-37.354-16.757-37.354-37.354v-27.974c0-20.597,16.757-37.354,37.354-37.354h27.974c20.598,0,37.354,16.757,37.354,37.354v27.974c0,20.597-16.757,37.354-37.354,37.354Zm-27.974-86.682c-11.774,0-21.354,9.579-21.354,21.354v27.974c0,11.774,9.579,21.354,21.354,21.354h27.974c11.775,0,21.354-9.58,21.354-21.354v-27.974c0-11.774-9.579-21.354-21.354-21.354h-27.974Z"/></g><g id="change1_7"><path d="m770.735,472.146h-27.974c-20.597,0-37.354-16.757-37.354-37.354v-27.974c0-20.597,16.757-37.354,37.354-37.354h27.974c20.597,0,37.354,16.757,37.354,37.354v27.974c0,20.597-16.757,37.354-37.354,37.354Zm-27.974-86.682c-11.774,0-21.354,9.579-21.354,21.354v27.974c0,11.774,9.579,21.354,21.354,21.354h27.974c11.774,0,21.354-9.58,21.354-21.354v-27.974c0-11.774-9.579-21.354-21.354-21.354h-27.974Z"/></g></g><g fill="#f46b02"><g id="change1_14"><path d="m346.679,716.172h-146.768c-4.418,0-8-3.582-8-8v-12.724c0-32.085,26.104-58.188,58.188-58.188h46.391c32.085,0,58.188,26.103,58.188,58.188v12.724c0,4.418-3.582,8-8,8Zm-138.768-16h130.768v-4.724c0-23.263-18.926-42.188-42.188-42.188h-46.391c-23.263,0-42.188,18.926-42.188,42.188v4.724Z"/><path d="m273.295,652.48c-24.292,0-44.056-19.764-44.056-44.056s19.764-44.056,44.056-44.056,44.056,19.763,44.056,44.056-19.764,44.056-44.056,44.056Zm0-72.112c-15.47,0-28.056,12.586-28.056,28.056s12.586,28.056,28.056,28.056,28.056-12.586,28.056-28.056-12.586-28.056-28.056-28.056Z"/></g><g id="change1_1"><path d="m489.623,691.611h-27.975c-20.597,0-37.354-16.757-37.354-37.354v-27.974c0-20.597,16.757-37.354,37.354-37.354h27.975c20.597,0,37.354,16.757,37.354,37.354v27.974c0,20.597-16.757,37.354-37.354,37.354Zm-27.975-86.682c-11.774,0-21.354,9.58-21.354,21.354v27.974c0,11.774,9.579,21.354,21.354,21.354h27.975c11.774,0,21.354-9.579,21.354-21.354v-27.974c0-11.774-9.579-21.354-21.354-21.354h-27.975Z"/></g><g id="change1_2"><path d="m630.179,691.611h-27.974c-20.597,0-37.354-16.757-37.354-37.354v-27.974c0-20.597,16.757-37.354,37.354-37.354h27.974c20.598,0,37.354,16.757,37.354,37.354v27.974c0,20.597-16.757,37.354-37.354,37.354Zm-27.974-86.682c-11.774,0-21.354,9.58-21.354,21.354v27.974c0,11.774,9.579,21.354,21.354,21.354h27.974c11.775,0,21.354-9.579,21.354-21.354v-27.974c0-11.774-9.579-21.354-21.354-21.354h-27.974Z"/></g><g id="change1_3"><path d="m770.735,691.611h-27.974c-20.597,0-37.354-16.757-37.354-37.354v-27.974c0-20.597,16.757-37.354,37.354-37.354h27.974c20.597,0,37.354,16.757,37.354,37.354v27.974c0,20.597-16.757,37.354-37.354,37.354Zm-27.974-86.682c-11.774,0-21.354,9.58-21.354,21.354v27.974c0,11.774,9.579,21.354,21.354,21.354h27.974c11.774,0,21.354-9.579,21.354-21.354v-27.974c0-11.774-9.579-21.354-21.354-21.354h-27.974Z"/></g></g><g fill="#f46b02"><g id="change1_15"><path d="m297.764,250.622h-2.743c-17.147,0-31.099-13.951-31.099-31.099v-33.653c0-17.148,13.951-31.1,31.099-31.1h2.743c17.148,0,31.1,13.951,31.1,31.1v33.653c0,17.148-13.951,31.099-31.1,31.099Zm-2.743-79.852c-8.325,0-15.099,6.773-15.099,15.1v33.653c0,8.326,6.773,15.099,15.099,15.099h2.743c8.326,0,15.1-6.773,15.1-15.099v-33.653c0-8.326-6.773-15.1-15.1-15.1h-2.743Z"/><path d="m433.502,250.622h-2.742c-17.148,0-31.1-13.951-31.1-31.099v-33.653c0-17.148,13.951-31.1,31.1-31.1h2.742c17.148,0,31.1,13.951,31.1,31.1v33.653c0,17.148-13.951,31.099-31.1,31.099Zm-2.742-79.852c-8.326,0-15.1,6.773-15.1,15.1v33.653c0,8.326,6.773,15.099,15.1,15.099h2.742c8.326,0,15.1-6.773,15.1-15.099v-33.653c0-8.326-6.773-15.1-15.1-15.1h-2.742Z"/><path d="m569.24,250.622h-2.742c-17.148,0-31.1-13.951-31.1-31.099v-33.653c0-17.148,13.951-31.1,31.1-31.1h2.742c17.148,0,31.1,13.951,31.1,31.1v33.653c0,17.148-13.951,31.099-31.1,31.099Zm-2.742-79.852c-8.326,0-15.1,6.773-15.1,15.1v33.653c0,8.326,6.773,15.099,15.1,15.099h2.742c8.326,0,15.1-6.773,15.1-15.099v-33.653c0-8.326-6.773-15.1-15.1-15.1h-2.742Z"/><path d="m704.979,250.622h-2.743c-17.148,0-31.1-13.951-31.1-31.099v-33.653c0-17.148,13.951-31.1,31.1-31.1h2.743c17.147,0,31.099,13.951,31.099,31.1v33.653c0,17.148-13.951,31.099-31.099,31.099Zm-2.743-79.852c-8.326,0-15.1,6.773-15.1,15.1v33.653c0,8.326,6.773,15.099,15.1,15.099h2.743c8.325,0,15.099-6.773,15.099-15.099v-33.653c0-8.326-6.773-15.1-15.099-15.1h-2.743Z"/></g><g id="change1_4"><path d="m834.338,806.064H165.662c-31.078,0-56.361-25.284-56.361-56.362V250.297c0-31.078,25.283-56.362,56.361-56.362h106.26c4.418,0,8,3.582,8,8v17.587c0,8.326,6.773,15.099,15.1,15.099h2.742c8.326,0,15.1-6.773,15.1-15.099v-17.587c0-4.418,3.582-8,8-8h86.797c4.418,0,8,3.582,8,8v17.587c0,8.326,6.773,15.099,15.1,15.099h2.742c8.326,0,15.1-6.773,15.1-15.099v-17.587c0-4.418,3.582-8,8-8h86.797c4.418,0,8,3.582,8,8v17.587c0,8.326,6.773,15.099,15.1,15.099h2.742c8.326,0,15.1-6.773,15.1-15.099v-17.587c0-4.418,3.582-8,8-8h86.797c4.418,0,8,3.582,8,8v17.587c0,8.326,6.773,15.099,15.1,15.099h2.742c8.326,0,15.1-6.773,15.1-15.099v-17.587c0-4.418,3.582-8,8-8h106.26c31.078,0,56.361,25.284,56.361,56.362v499.405c0,31.078-25.283,56.362-56.361,56.362ZM165.662,209.936c-22.255,0-40.361,18.106-40.361,40.362v499.405c0,22.256,18.106,40.362,40.361,40.362h668.676c22.255,0,40.361-18.106,40.361-40.362V250.297c0-22.255-18.106-40.362-40.361-40.362h-98.26v9.587c0,17.148-13.951,31.099-31.1,31.099h-2.742c-17.148,0-31.1-13.951-31.1-31.099v-9.587h-70.797v9.587c0,17.148-13.951,31.099-31.1,31.099h-2.742c-17.148,0-31.1-13.951-31.1-31.099v-9.587h-70.797v9.587c0,17.148-13.951,31.099-31.1,31.099h-2.742c-17.148,0-31.1-13.951-31.1-31.099v-9.587h-70.797v9.587c0,17.148-13.951,31.099-31.1,31.099h-2.742c-17.148,0-31.1-13.951-31.1-31.099v-9.587h-98.26Z"/></g></g><g id="change1_8"><path d="m476.007,433.423c-2.122,0-4.156-.843-5.657-2.343l-19.405-19.405c-3.124-3.124-3.124-8.189,0-11.313,3.125-3.124,8.189-3.124,11.314,0l13.748,13.748,50.49-50.491c3.125-3.124,8.189-3.124,11.314,0,3.124,3.124,3.124,8.189,0,11.313l-56.147,56.148c-1.501,1.5-3.535,2.343-5.657,2.343Z" fill="#f46b02"/></g><g id="change1_9"><path d="m618.07,433.423h0c-2.122,0-4.156-.843-5.657-2.343l-19.404-19.405c-3.124-3.125-3.124-8.189,0-11.314,3.124-3.124,8.189-3.124,11.313,0l13.747,13.748,50.491-50.491c3.125-3.124,8.189-3.124,11.314,0,3.124,3.124,3.124,8.189,0,11.313l-56.148,56.148c-1.501,1.5-3.535,2.343-5.657,2.343Z" fill="#f46b02"/></g><g id="change1_10"><path d="m618.07,653.26h0c-2.122,0-4.156-.843-5.657-2.343l-19.404-19.405c-3.124-3.125-3.124-8.189,0-11.314,3.124-3.124,8.189-3.124,11.313,0l13.747,13.748,50.491-50.491c3.125-3.124,8.189-3.124,11.314,0,3.124,3.124,3.124,8.189,0,11.313l-56.148,56.148c-1.501,1.5-3.535,2.343-5.657,2.343Z" fill="#f46b02"/></g><g id="change1_11"><path d="m760.135,433.423h0c-2.122,0-4.156-.843-5.657-2.343l-19.404-19.405c-3.124-3.125-3.124-8.189,0-11.314,3.125-3.124,8.19-3.124,11.313,0l13.747,13.748,50.491-50.491c3.125-3.124,8.189-3.124,11.314,0,3.124,3.124,3.124,8.189,0,11.313l-56.148,56.148c-1.501,1.5-3.535,2.343-5.657,2.343Z" fill="#f46b02"/></g><g fill="#f46b02" id="change1_16"><path d="m460.849,663.823c-2.048,0-4.095-.781-5.657-2.343-3.124-3.124-3.124-8.189,0-11.313l30.384-30.383c3.127-3.125,8.191-3.124,11.314,0,3.124,3.124,3.124,8.189,0,11.313l-30.384,30.383c-1.562,1.562-3.61,2.343-5.657,2.343Z"/><path d="m491.232,663.823c-2.048,0-4.095-.781-5.657-2.343l-30.384-30.383c-3.124-3.124-3.124-8.189,0-11.313,3.125-3.124,8.189-3.125,11.314,0l30.384,30.383c3.124,3.124,3.124,8.189,0,11.313-1.562,1.562-3.609,2.343-5.657,2.343Z"/></g><g fill="#f46b02" id="change1_12"><path d="m741.557,663.823c-2.048,0-4.095-.781-5.657-2.343-3.124-3.124-3.124-8.189,0-11.313l30.384-30.383c3.126-3.125,8.19-3.124,11.314,0,3.124,3.124,3.124,8.189,0,11.313l-30.384,30.383c-1.562,1.562-3.61,2.343-5.657,2.343Z"/><path d="m771.94,663.823c-2.048,0-4.095-.781-5.657-2.343l-30.384-30.383c-3.124-3.124-3.124-8.189,0-11.313,3.125-3.124,8.189-3.125,11.314,0l30.384,30.383c3.124,3.124,3.124,8.189,0,11.313-1.562,1.562-3.609,2.343-5.657,2.343Z"/></g></svg>