<?xml version="1.0" encoding="UTF-8" standalone="no"?><svg xmlns="http://www.w3.org/2000/svg" xmlns:xlink="http://www.w3.org/1999/xlink" fill="#000000" height="44" preserveAspectRatio="xMidYMid meet" version="1" viewBox="0.0 0.0 39.8 44.0" width="39.8" zoomAndPan="magnify"><defs><clipPath id="a"><path d="M 17 1 L 39.808594 1 L 39.808594 4 L 17 4 Z M 17 1"/></clipPath><clipPath id="b"><path d="M 0 17 L 39.808594 17 L 39.808594 44 L 0 44 Z M 0 17"/></clipPath></defs><g><g id="change1_3"><path d="M 29.085938 12.273438 C 30.546875 11.964844 31.984375 12.894531 32.296875 14.355469 C 32.605469 15.816406 31.675781 17.253906 30.214844 17.566406 C 28.753906 17.878906 27.3125 16.945312 27.003906 15.484375 C 26.695312 14.023438 27.625 12.585938 29.085938 12.273438" fill="#f46b02"/></g><g id="change1_4"><path d="M 1.476562 14.414062 C 1.046875 14.414062 0.699219 14.070312 0.699219 13.640625 C 0.699219 13.214844 1.046875 12.867188 1.476562 12.867188 C 1.902344 12.867188 2.25 13.214844 2.25 13.640625 C 2.25 14.070312 1.902344 14.414062 1.476562 14.414062 Z M 4.128906 14.414062 C 3.703125 14.414062 3.355469 14.070312 3.355469 13.640625 C 3.355469 13.214844 3.703125 12.867188 4.128906 12.867188 C 4.554688 12.867188 4.902344 13.214844 4.902344 13.640625 C 4.902344 14.070312 4.554688 14.414062 4.128906 14.414062 Z M 6.78125 14.414062 C 6.355469 14.414062 6.007812 14.070312 6.007812 13.640625 C 6.007812 13.214844 6.355469 12.867188 6.78125 12.867188 C 7.207031 12.867188 7.554688 13.214844 7.554688 13.640625 C 7.554688 14.070312 7.207031 14.414062 6.78125 14.414062 Z M 9.4375 14.414062 C 9.007812 14.414062 8.660156 14.070312 8.660156 13.640625 C 8.660156 13.214844 9.011719 12.867188 9.4375 12.867188 C 9.863281 12.867188 10.207031 13.214844 10.207031 13.640625 C 10.207031 14.070312 9.863281 14.414062 9.4375 14.414062" fill="#f46b02"/></g><g id="change1_5"><path d="M 18.816406 15.558594 L 21.175781 13.640625 L 22.296875 14.324219 L 20.796875 16.730469 L 18.816406 15.558594" fill="#f46b02"/></g><g id="change1_6"><path d="M 16.730469 0 L 14.964844 0 L 14.964844 1.46875 L 0 1.46875 L 0 3.457031 L 14.964844 3.457031 L 14.964844 7.425781 L 11.753906 5.5625 L 8.753906 10.765625 L 17.109375 15.683594 L 22.1875 11.621094 L 16.730469 8.453125 L 16.730469 0" fill="#f46b02"/></g><g clip-path="url(#a)" id="change1_2"><path d="M 17.574219 1.46875 L 39.804688 1.46875 L 39.804688 3.457031 L 17.574219 3.457031 L 17.574219 1.46875" fill="#f46b02"/></g><g clip-path="url(#b)" id="change1_1"><path d="M 21.207031 41.660156 L 26.261719 37.078125 C 26.425781 36.960938 26.925781 36.550781 26.925781 36.007812 C 26.925781 35.75 26.933594 31.597656 26.933594 31.597656 L 31 33.910156 L 31.019531 40.730469 C 31.019531 41.339844 31.285156 41.761719 31.660156 42.011719 L 20.621094 42.011719 C 20.816406 41.929688 21.011719 41.820312 21.207031 41.660156 Z M 33.433594 42.011719 C 33.820312 41.761719 34.097656 41.332031 34.097656 40.71875 L 34.109375 33.441406 C 34.078125 32.351562 33.570312 31.757812 32.847656 31.246094 C 32.304688 30.871094 28.578125 28.230469 28.578125 28.230469 L 29.050781 26.558594 L 31.988281 26.558594 C 32.765625 26.558594 33.398438 25.925781 33.398438 25.148438 C 33.398438 24.371094 32.765625 23.738281 31.988281 23.738281 L 29.847656 23.738281 L 30.621094 21.011719 C 30.871094 20.019531 30.410156 19.09375 29.941406 18.667969 C 29.496094 18.222656 28.609375 17.894531 27.925781 17.890625 C 27.375 17.886719 26.613281 18.160156 26.035156 18.753906 L 18.660156 27.261719 C 18.152344 27.851562 18.214844 28.738281 18.800781 29.25 C 19.070312 29.480469 19.398438 29.59375 19.722656 29.59375 C 20.121094 29.59375 20.511719 29.429688 20.789062 29.105469 L 23.332031 26.175781 C 23.300781 26.320312 23.273438 26.464844 23.257812 26.597656 C 23.21875 26.730469 23.140625 27.308594 23.15625 27.90625 L 23.414062 35.246094 L 18.996094 39.292969 C 17.949219 40.203125 18.410156 41.585938 19.378906 42.011719 L 0 42.011719 L 0 44 L 39.804688 44 L 39.804688 42.011719 L 33.433594 42.011719" fill="#f46b02"/></g></g></svg>