<?xml version="1.0" encoding="UTF-8" standalone="no"?><svg xmlns="http://www.w3.org/2000/svg" xmlns:xlink="http://www.w3.org/1999/xlink" data-name="Layer 1" fill="#d9d9d9" height="2042.3" preserveAspectRatio="xMidYMid meet" version="1" viewBox="-0.2 958.2 2043.1 2042.3" width="2043.1" zoomAndPan="magnify"><g id="change1_1"><path d="M118.79,2941.08c-.17,32.56-26.52,59.5-59.25,58.91C25.33,2999.37.2,2973.83,0,2940c-.19-32.25,27-58.7,59.6-59S119,2907.83,118.79,2941.08Zm-58.87-124.2c29.93-.07,54.53-24.63,54.74-54.66.22-30.73-24.09-55.76-54.44-56-30.13-.27-55.73,24.67-56.17,54.72C3.61,2791.19,29.34,2817,59.92,2816.88Zm180.81,68.8c-27.08-.78-55.78,19.44-56.49,55-.6,30.05,24.41,54.4,54.7,54.61,33.29,1.39,56.29-28.31,55.84-54.29C294.24,2910.39,271,2886.55,240.73,2885.68Zm-1.23-72.38c27.15,1.38,52.12-21.52,52.55-51.35.43-29.18-25.11-52.85-51.78-52.34-30,.57-52.79,22.41-52.76,52.06C187.55,2790.83,210.12,2813.24,239.5,2813.3Zm178.76,76.88c-27.43.38-50.49,23.68-50.2,50.72.29,27.3,23.63,50.27,50.83,50a50.25,50.25,0,0,0,49.79-50.66C468.56,2912.51,445.69,2889.81,418.26,2890.18ZM59.92,2631.29c24,1.5,50.44-19.44,50.06-50a50,50,0,0,0-50.65-49.67c-28.22.77-49.91,22-49.81,50.24S31.32,2631.36,59.92,2631.29Zm179.65-1.3c26.13.29,48.59-22,48.69-48.33s-21.76-48.15-48.5-48.42a48.38,48.38,0,0,0-.19,96.75Zm179.15,179.23c27.12,0,48-21,47.91-48-.12-26.49-21-47.25-47.64-47.32-27.25-.07-48.74,20.84-48.84,47.55S391.59,2809.23,418.72,2809.22ZM59.91,2447c25-.07,44.76-20,44.83-45.17.07-25-19.76-45.38-44.46-45.65-25-.27-46.22,20.49-46.32,45.25S34.89,2447,59.91,2447Zm538.4,448.76c-25.66.14-44.89,19.44-44.84,45,0,24.94,20.42,45.42,45,45.28,25.25-.15,46.12-21.15,45.72-46C643.82,2915,623.7,2895.58,598.31,2895.71ZM418.89,2626.77c24.5-.39,45.29-21.35,45.1-45.48s-21.21-45-45.59-45-44.89,20.87-44.79,45.49S394.68,2627.16,418.89,2626.77Zm-180-180.47c22.55.17,43.53-15.89,44.58-43.25.89-23.55-19.51-44.39-43.62-44.2-27.55.21-43.64,22.47-44.09,42.78C195.24,2425.53,214.51,2446.12,238.88,2446.3Zm359.86,358.75a43.77,43.77,0,0,0,43.65-42.86c.41-24-19.3-44.06-43.34-44.19s-44.11,19.55-44.19,43.41S574.56,2805.06,598.74,2805.05Zm.48-182.19c21.94-.26,40.73-19.18,40.86-41.15.15-22.27-19-41.87-41.54-41.36-25.11.57-41.48,20-41,41.54A41.1,41.1,0,0,0,599.22,2622.86Zm-180.56-179.6c20.81,1.12,41-16.13,41.36-41,.32-22.73-18.57-40.6-41.88-40.5a40.37,40.37,0,0,0-40.59,40.51C377.47,2425.43,395.37,2443.26,418.66,2443.26ZM59.14,2262.9c22.11.17,41.17-18.7,41-40.58C100,2201,80.84,2182,59.56,2182.2a40.29,40.29,0,0,0-40,40.18C19.46,2244.59,37.2,2262.74,59.14,2262.9Zm719.32,637.33c-21.69-.05-40.68,19.39-40.33,41.27.33,21.17,19.68,39.66,41.15,39.35,21.9-.32,39.5-18.5,39.36-40.69A40.28,40.28,0,0,0,778.46,2900.23Zm-.56-99.42c21.44.35,39.94-17.63,40.14-39s-18.09-39.52-39.63-39.53c-20.95,0-38.72,17.85-38.83,39S756.85,2800.47,777.9,2800.81ZM238.67,2261.2c22.62.32,39.75-16.07,39.94-38.23a38.28,38.28,0,0,0-38.12-39.11c-20.75-1.36-39.47,15.42-40.2,38.27C199.62,2243.1,217.4,2260.9,238.67,2261.2Zm360,179.44c20.33.12,38-17.85,37.86-38.44-.16-20.14-17.56-37.64-37.55-37.77-20.89-.13-38.81,18-38.55,39C560.66,2423.23,578.44,2440.53,598.66,2440.64Zm180.32,178c19.65-.14,36.93-17.64,36.83-37.29s-17.53-37.07-37.11-37a37.45,37.45,0,0,0-37,37.81C741.81,2602,759,2618.84,779,2618.68ZM419.06,2259.13c20.91.15,37.22-15.55,37.48-36.05a36.52,36.52,0,0,0-36.44-37.17c-20.54-.22-37.39,15.88-37.78,36.12S398.55,2259,419.06,2259.13ZM59.43,2077.56c20.08.18,35.42-15.19,35.27-35.34-.15-19.66-15.18-34.46-35-34.46S23.71,2023.7,24,2043,39.74,2077.38,59.43,2077.56Zm898.85,828.62c-19.22-.32-36.11,16.09-36.24,35.19-.12,18.81,16,35.22,34.8,35.54a35.19,35.19,0,0,0,35.86-35.1C992.79,2922.71,977.13,2906.49,958.28,2906.18ZM239,2077c19.21.22,35.31-15.57,35.23-34.55-.07-18.41-16-34.17-34.58-34.3a34,34,0,0,0-34.25,34.12C205.32,2061.48,220.09,2076.75,239,2077Zm359.56,179.85a34,34,0,0,0,34-34.43c-.08-18.46-15.18-33.82-33.46-34.07s-34.77,15.87-34.92,34C564.08,2240.66,580.29,2256.93,598.59,2256.81Zm179.33,180a34,34,0,0,0,34.69-33.75c.22-18.94-15.15-34.73-33.79-34.74-18.3,0-34.69,16.26-34.59,34.35S760,2436.49,777.92,2436.8ZM957.2,2795.22c19.41.1,34.86-14.86,34.83-33.73,0-18.46-15.14-33.43-33.95-33.63-19.46-.2-34.39,14.41-34.49,33.78C923.48,2780.34,938.27,2795.12,957.2,2795.22ZM420.15,2075a32.75,32.75,0,0,0,32.18-32.72c-.15-17.68-14.85-32.16-32.73-32.24-18.58-.08-32.51,14.31-32.23,33.28C387.64,2061.53,401.78,2075.19,420.15,2075Zm537.42,539.27c17.59-.14,32.78-15.15,32.76-32.36,0-18-15.17-33.2-33-33.12-17.6.09-32,14.89-31.92,32.89S940,2614.41,957.57,2614.28ZM778.68,2253.15c17.14-.08,31.41-14.45,31-31.2-.42-16.56-14.44-30-31.23-30a30.61,30.61,0,1,0,.25,61.22ZM958,2432.85c15.89-.15,29.92-14.26,30-30.19.09-16.18-14.54-30.59-30.88-30.41s-29.57,13.79-29.59,30.27A30.12,30.12,0,0,0,958,2432.85Zm-359.95-360a30.3,30.3,0,0,0,1.09-60.59c-16.32-.26-31,14.09-31,30.3C568.19,2058.46,582.18,2072.64,598.07,2072.85ZM59.69,1893.26c17.15-.06,30.71-13.52,30.39-30.19a30,30,0,0,0-30.41-29.24c-17.37,0-30.35,13.07-30.1,30.26C29.81,1880.75,42.78,1893.31,59.69,1893.26ZM1138.47,2911.84c-17.48-.28-30.77,12.38-30.9,29.45a29.21,29.21,0,0,0,29.32,30c17.33.21,31-12.63,31.19-29.39C1168.3,2925.68,1154.91,2912.1,1138.47,2911.84ZM239.62,1893c16.42-.08,29-12.56,29.18-28.94.17-16.1-12.55-29.55-28.34-30a29.85,29.85,0,0,0-30.53,29.06C209.66,1879.4,223.26,1893.06,239.62,1893ZM1137,2791c16.85.26,29.78-12.45,29.82-29.29,0-16.06-12.89-29.4-28.69-29.61-16.44-.21-30.16,13.15-30.19,29.41A29.75,29.75,0,0,0,1137,2791Zm.7-181.8c15.28,0,28.24-12.72,28.19-27.72s-13.09-27.67-28.34-27.59c-15.84.09-27.94,12.13-27.91,27.75S1121.79,2609.17,1137.68,2609.19Zm-717.91-718c15.27,0,28.21-12.83,28.1-27.81s-13.17-27.62-28.44-27.5c-15.81.13-27.89,12.22-27.81,27.84S403.86,1891.21,419.77,1891.19ZM956.68,2249.5c15.45.47,27.73-11.06,28-26.3s-10.86-27-25.76-27.41c-15.78-.46-28,10.47-28.79,25.68C929.4,2236.34,941.42,2249,956.68,2249.5Zm-178.28-180c15.36,0,27.64-11.91,27.68-26.93s-12.08-26.84-27.68-26.82-27.11,11.75-26.88,27.29A26.61,26.61,0,0,0,778.4,2069.53Zm358.3,358.85c13.84.49,26.68-11.75,26.67-25.46s-11.32-25.62-25-26.07c-14-.46-26.4,11.36-26.57,25.42A26.22,26.22,0,0,0,1136.7,2428.38ZM599.46,1889.06a25.83,25.83,0,0,0,24.92-25.85c-.21-14.13-12.34-25.59-26.66-25.19a25.54,25.54,0,1,0,1.74,51Zm717.11,1027a25.52,25.52,0,1,0,25.8,26C1342.69,2928,1330.9,2916.08,1316.57,2916ZM59.22,1709.07a25.53,25.53,0,1,0,.78-51c-14.32-.14-26.26,11.57-26.19,25.67A25.83,25.83,0,0,0,59.22,1709.07Zm180.45-.49c13.15.06,24.85-11.78,24.8-25.11s-11.61-24.84-25-24.87c-13.17,0-24.72,11.62-24.88,25.12C214.41,1696.67,226.37,1708.52,239.67,1708.58Zm1076.87,1078c13.29-.06,25.26-11.91,25.1-24.86-.16-13.5-11.7-25.15-24.88-25.12-13.42,0-25,11.51-25,24.87S1303.38,2786.64,1316.54,2786.58Zm-358.8-719.91c12.71,0,24.22-11.75,24-24.49-.24-12.44-11.39-23.59-23.74-23.73-13-.16-24.27,11-24.31,24A24.31,24.31,0,0,0,957.74,2066.67ZM419.8,1707c12.71,0,23.64-11,23.52-23.67s-11.25-23.46-23.95-23.25c-13,.22-23.62,10.91-23.48,23.68A23.76,23.76,0,0,0,419.8,1707ZM1316,2604.72c12.56.31,24-10.81,23.89-23.29-.07-12-11-22.89-23.19-23s-22.91,10.35-23.09,22.86A23.23,23.23,0,0,0,1316,2604.72Zm-537.89-718c12.6.23,23.92-10.92,23.77-23.4-.14-12-11.13-22.86-23.3-22.94s-22.85,10.46-23,23A23.22,23.22,0,0,0,778.11,1886.72Zm359.58,358.47c12.83-.09,22.85-10,22.88-22.56a22.65,22.65,0,0,0-22.74-22.75,22.88,22.88,0,0,0-23.51,23.13C1114.36,2235.26,1124.91,2245.28,1137.69,2245.19ZM599.12,1705.12a21.33,21.33,0,0,0,21.39-21.67c0-12.47-9.83-21.83-22.52-21.52-11.93.28-21.68,10-21.63,21.66C576.41,1695.61,586.66,1705.3,599.12,1705.12Zm718.08,719.27c11.58-.3,21.36-10.54,21.19-22.19s-10.35-21.66-21.85-21.51-21.8,10.31-21.89,21.68C1294.55,2414.08,1305.43,2424.7,1317.2,2424.39ZM60.06,1524.76a21.05,21.05,0,0,0,20.54-21.37c-.22-11.51-9.84-21.15-21-21.05s-21.11,9.9-21.31,21C38.07,1514.81,48.39,1525,60.06,1524.76ZM1496.81,2920.39c-10.89-.27-21,9.81-21.12,21s9.84,21.31,20.82,21.28c11.15,0,21.2-9.91,21.33-21C1518,2930.89,1507.88,2920.67,1496.81,2920.39ZM239.71,1524.74c10.66,0,20.31-9.86,20.08-20.56s-10.29-20.33-20.82-19.8a20.19,20.19,0,0,0,.74,40.36Zm717.7,358.47c11.49,0,20.64-8.83,20.49-19.88A19.9,19.9,0,0,0,958,1843.89c-11.5-.1-20.47,8.69-20.33,19.93A19.51,19.51,0,0,0,957.41,1883.21Zm179.85,180c11.52.11,20.71-8.67,20.65-19.74a19.91,19.91,0,0,0-19.81-19.58c-11.51-.16-20.54,8.56-20.47,19.78A19.51,19.51,0,0,0,1137.26,2063.21Zm359.34,718a19.49,19.49,0,0,0,20-19.19c.25-11.25-8.63-20.13-20.12-20.12a19.88,19.88,0,0,0-20.13,19.25C1476,2772.16,1485.14,2781.17,1496.6,2781.2ZM778.48,1702.68c10.13,0,19.25-9,19.37-19s-9-19.18-19-19.25a19.28,19.28,0,0,0-19.17,18.94C759.59,1693.74,768.35,1702.72,778.48,1702.68Zm718.46,898c10.14-.32,19.07-9.49,18.91-19.41s-9.52-19-19.47-18.79a19.25,19.25,0,0,0-18.71,19.38C1477.84,2592.19,1486.87,2601,1496.94,2600.69Zm-178.81-359.54a18.24,18.24,0,0,0,18.41-19.33,18.63,18.63,0,0,0-19-17.91c-10.73.05-19.29,8.52-19.11,18.91S1307.3,2241.33,1318.13,2241.15Zm-898-718a18.27,18.27,0,0,0,18.41-19.34,18.63,18.63,0,0,0-19-17.91c-10.73,0-19.29,8.52-19.11,18.91S409.3,1523.33,420.13,1523.16ZM1496.6,2420.52c9.32.06,17.83-8.53,17.82-18s-8.41-17.86-17.94-17.84c-9.3,0-18,8.72-17.91,18S1487.14,2420.45,1496.6,2420.52Zm-897.95-898c9.31,0,17.81-8.6,17.77-18s-8.47-17.83-18-17.78c-9.3,0-18,8.78-17.86,18S589.21,1522.49,598.65,1522.52Zm537.7,358.55a17.78,17.78,0,0,0,19.08-16.28c.74-9.51-6.91-18.12-16.68-18.79a17.58,17.58,0,1,0-2.4,35.07ZM957.29,1700.22c8.54.24,16.75-7.7,16.94-16.37s-7.59-16.63-16.45-16.77-16.73,7.58-16.9,16.33S948.29,1700,957.29,1700.22Zm360,360c8.54.23,16.75-7.74,16.91-16.4s-7.64-16.62-16.48-16.75-16.72,7.63-16.87,16.37S1308.32,2060,1317.32,2060.22Zm359,864.86c-8.85.2-16.59,8.17-16.35,16.85s8.49,16.58,17,16.29c9-.31,16.54-8.11,16.32-16.9S1685.06,2924.89,1676.33,2925.08ZM60.75,1341a16.64,16.64,0,0,0,16.37-16.61A16.6,16.6,0,1,0,60.75,1341ZM1676.49,2776.78c8.07,0,15.35-7,15.49-15s-7.08-15.33-15.06-15.42a15.52,15.52,0,0,0-15.33,15C1661.5,2769.58,1668.45,2776.76,1676.49,2776.78Zm-.72-180c8,.45,15.57-6.22,16.16-14.28.58-7.9-6.22-15.56-14.29-16.1s-15.55,6.16-16,14.27S1667.7,2596.31,1675.77,2596.77ZM240.13,1339.5a14.42,14.42,0,0,0,14.48-14.56c.08-8.68-6.29-15.07-15-15.1-8.42,0-15.47,6.91-15.28,15S231.74,1339.66,240.13,1339.5Zm1256.22,898c8.36,0,15.5-6.85,15.52-14.93s-7.11-14.9-15.55-14.73a14.83,14.83,0,0,0,0,29.66Zm-1076.52-898a14.83,14.83,0,0,0,.07-29.65c-8.44-.17-15.58,6.58-15.57,14.71S411.46,1339.51,419.83,1339.5Zm358.2,180c8.39.18,15.62-6.47,15.85-14.59.22-7.71-6.3-14.6-14.24-15-8.78-.49-15.56,5.44-16,14A14.48,14.48,0,0,0,778,1519.5Zm-179.2-181.19c7.39-.26,13.93-7.29,13.49-14.5-.42-7-7-13-14-12.83A13.56,13.56,0,0,0,585,1325.36C585.43,1332.57,591.83,1338.56,598.83,1338.31Zm1077,1078c7.28.4,14.35-6.14,14.53-13.44.16-6.94-5.94-13.45-13-13.87a13.55,13.55,0,0,0-14.31,13.36A13.79,13.79,0,0,0,1675.8,2416.28Zm-717.62-898c7.33.16,14.2-6.56,14.14-13.83-.05-7-6.37-13.33-13.38-13.52a13.68,13.68,0,0,0-.76,27.35ZM1496.94,2057a13.6,13.6,0,0,0,13.35-13.27,13.78,13.78,0,0,0-14-13.68c-7.09.14-13.37,6.35-13.47,13.31C1482.71,2050.7,1489.37,2057.13,1496.94,2057Zm-179.75-180c7.57.13,14.27-6.27,14.21-13.57-.06-6.94-6.34-13.21-13.41-13.37a13.77,13.77,0,0,0-14.08,13.61A13.61,13.61,0,0,0,1317.19,1877Zm-180-180c7.57.13,14.27-6.27,14.21-13.57-.06-6.94-6.34-13.21-13.41-13.37a13.77,13.77,0,0,0-14.08,13.61A13.61,13.61,0,0,0,1137.19,1697Zm539.62,537.55c6.39-.09,11.91-6,11.63-12.51a12,12,0,0,0-23.92.54A12.49,12.49,0,0,0,1676.81,2234.58ZM778,1336.54c6.36.42,12.29-5.1,12.49-11.62a12,12,0,0,0-23.92-1.16C766.08,1330.12,771.44,1336.11,778,1336.54Zm-537.68-180c6.52-.45,11.86-6.47,11.39-12.82a12,12,0,0,0-23.91,1.24C228,1151.48,233.93,1157,240.28,1156.54Zm-179.92,0c6.38.18,12.11-5.52,12.08-12a12,12,0,0,0-23.91-.36A12.4,12.4,0,0,0,60.36,1156.56ZM1317,1695.11a11.57,11.57,0,1,0-11.24-11.6A11.42,11.42,0,0,0,1317,1695.11Zm538,1078a11.57,11.57,0,1,0-11.24-11.6A11.42,11.42,0,0,0,1855,2773.11Zm1,156.89a11.64,11.64,0,0,0-12.21,11.71,11.34,11.34,0,0,0,11.43,11.4A11.57,11.57,0,1,0,1856,2930Zm-.4-517.57c5.31,0,10.27-5.1,10-10.33-.25-4.85-5-9.39-9.92-9.4a9.87,9.87,0,0,0-.09,19.73Zm0,160.26a9.87,9.87,0,0,0,.11,19.74c5.31,0,10.23-5.21,9.91-10.43C1865.31,2577.16,1860.46,2572.65,1855.59,2572.69ZM959,1334.45a10.14,10.14,0,0,0,9.35-9.88,10,10,0,0,0-10.32-9.86c-5,.27-9.48,5-9.48,9.83C948.6,1329.8,953.81,1334.74,959,1334.45Zm177.69,179.92c5.22.55,10.61-4.11,10.88-9.39.24-4.82-4.1-9.75-9-10.26a9.87,9.87,0,0,0-1.83,19.65ZM598,1154.41a9.86,9.86,0,1,0,.16-19.7c-4.94.22-9.51,4.89-9.55,9.76S593,1154.08,598,1154.41Zm-178.71,0c5.26.23,10.4-4.75,10.34-10-.07-4.87-4.65-9.53-9.59-9.72a9.87,9.87,0,1,0-.75,19.73ZM1675.81,2053a9.52,9.52,0,1,0-9-10.92A9.49,9.49,0,0,0,1675.81,2053ZM1497,1873a9.63,9.63,0,0,0,9.37-9.7,9.75,9.75,0,0,0-9.81-9.3,9.52,9.52,0,1,0,.44,19Zm358.88,163.53a7,7,0,1,0-.55,14,7,7,0,0,0,.55-14Zm-179.11-346a7,7,0,1,0-.27-14,7,7,0,0,0,.27,14Zm358.54,538.9a6.85,6.85,0,1,0,.33-13.69,6.91,6.91,0,0,0-7.21,6.63A7.15,7.15,0,0,0,2035.29,2229.46Zm-179.5,0a6.85,6.85,0,1,0-.66-13.68,7,7,0,0,0-6.72,7.14A7.15,7.15,0,0,0,1855.79,2229.44Zm-718.2-1076.9a7,7,0,0,0,0-14c-3.56.06-7,3.53-7,7A7.48,7.48,0,0,0,1137.59,1152.54Zm-178.68-1.08a7.17,7.17,0,0,0,6.89-7.06,6.93,6.93,0,0,0-7.23-6.63,6.85,6.85,0,1,0,.34,13.69Zm-180.33-13.69a6.85,6.85,0,1,0,.32,13.69,7.16,7.16,0,0,0,6.9-7A6.93,6.93,0,0,0,778.58,1137.77ZM1677.1,1856.6a7,7,0,0,0-1,13.91,7,7,0,1,0,1-13.91Zm178.29,14a7,7,0,0,0,.39-14,7.5,7.5,0,0,0-7.22,6.8C1848.45,1866.87,1851.8,1870.39,1855.39,1870.55ZM1317,1331.43a6.83,6.83,0,1,0,.87-13.63,7,7,0,0,0-7.49,6.33A7.14,7.14,0,0,0,1317,1331.43Zm719,1423.15a7,7,0,1,0-.83,13.93,7,7,0,0,0,.83-13.93ZM1137.59,1331.45a6.85,6.85,0,1,0-.27-13.69,6.92,6.92,0,0,0-6.92,6.94A7.12,7.12,0,0,0,1137.59,1331.45Zm179.86,166.32a6.9,6.9,0,0,0-7,6.8,7.17,7.17,0,0,0,7,6.89,6.85,6.85,0,1,0,0-13.69Zm717.9,911.7a6.85,6.85,0,1,0,.22-13.7,6.9,6.9,0,0,0-7.16,6.69A7.17,7.17,0,0,0,2035.35,2409.47Zm-539-898a7.15,7.15,0,0,0,7.41-6.5,7,7,0,0,0-6.68-7.17,6.85,6.85,0,1,0-.73,13.67ZM778.79,972.55a7,7,0,1,0-.34-14,7,7,0,0,0,.34,14Zm-179.8,0a7,7,0,1,0-.74-13.94,7,7,0,0,0,.74,13.94Zm-179,0a7,7,0,0,0-.85-13.92,7,7,0,1,0,.85,13.92Zm-180.08,0a7,7,0,0,0-.69-13.95,7,7,0,1,0,.69,13.95ZM61,972.52a7,7,0,1,0-.74-13.94A7,7,0,0,0,61,972.52ZM2035.78,2589.44a6.85,6.85,0,1,0-.64-13.68,7,7,0,0,0-6.73,7.13A7.15,7.15,0,0,0,2035.78,2589.44Zm-539-898.89a7,7,0,1,0-.35-14,7,7,0,0,0,.35,14Zm538.79,1244c-3.56.06-7,3.52-7,7a7.51,7.51,0,0,0,7,7,7,7,0,0,0,0-14Z"/></g></svg>